<svg xmlns="http://www.w3.org/2000/svg" width="43.114" height="43.113" viewBox="0 0 43.114 43.113">
  <path id="dribbble-1214390" d="M23.557,2A21.557,21.557,0,1,0,45.114,23.557,21.557,21.557,0,0,0,23.557,2Zm0,4.311A17.116,17.116,0,0,1,35.435,11.1a53.741,53.741,0,0,1-10.412,4.7A62.665,62.665,0,0,0,18.836,6.98a17.116,17.116,0,0,1,4.721-.668ZM14.7,8.79a58.548,58.548,0,0,1,6.057,8.3,54.129,54.129,0,0,1-12.934,1.6H7.044A17.245,17.245,0,0,1,14.7,8.79ZM10.623,35A17.03,17.03,0,0,1,6.311,23.557v-.625H7.777a57.492,57.492,0,0,0,15.09-2.156c.69,1.315,1.337,2.673,1.962,4.074a30.826,30.826,0,0,0-9.248,5.2l-.647.517A45.269,45.269,0,0,0,10.623,35Zm12.934,5.8a17.073,17.073,0,0,1-9.636-2.953,38.629,38.629,0,0,1,3.363-3.406l.69-.582A27.226,27.226,0,0,1,26.6,28.967a68.982,68.982,0,0,1,3.018,10.778A17.418,17.418,0,0,1,23.557,40.8Zm9.981-3.212a75.169,75.169,0,0,0-2.759-9.614h.733a.539.539,0,0,1,.259,0h1.487a20.328,20.328,0,0,1,6.661,1.143,17.116,17.116,0,0,1-6.381,8.472Zm-.28-14.033H31.921a3.363,3.363,0,0,0-.841,0,14.313,14.313,0,0,0-1.746.216h-.216c-.625-1.444-1.272-2.845-1.983-4.311a57.277,57.277,0,0,0,11.059-5.174A17.245,17.245,0,0,1,40.8,23.557v1.1a24.747,24.747,0,0,0-7.545-1.1Z" transform="translate(-2 -2)" fill="#5f5f5f"/>
</svg>
