<svg xmlns="http://www.w3.org/2000/svg" width="43.114" height="43.113" viewBox="0 0 43.114 43.113">
  <path id="instagram-1239436" d="M35.068,9.459h0a2.587,2.587,0,1,0,2.587,2.587A2.587,2.587,0,0,0,35.068,9.459Zm9.916,5.217a16.361,16.361,0,0,0-.992-5.238,10.649,10.649,0,0,0-2.5-3.816,10.132,10.132,0,0,0-3.816-2.479,15.737,15.737,0,0,0-5.238-1.013C30.153,2,29.42,2,23.557,2s-6.6,0-8.881.129A15.737,15.737,0,0,0,9.437,3.143,10.3,10.3,0,0,0,5.622,5.622,10.132,10.132,0,0,0,3.143,9.437a15.736,15.736,0,0,0-1.013,5.238C2,16.96,2,17.693,2,23.557s0,6.6.129,8.881a15.736,15.736,0,0,0,1.013,5.238,10.132,10.132,0,0,0,2.479,3.816,10.3,10.3,0,0,0,3.816,2.479,15.736,15.736,0,0,0,5.238,1.013c2.285.129,3.018.129,8.881.129s6.6,0,8.881-.129a15.737,15.737,0,0,0,5.238-1.013,10.132,10.132,0,0,0,3.816-2.479,10.455,10.455,0,0,0,2.5-3.816,16.361,16.361,0,0,0,.992-5.238c0-2.285.129-3.018.129-8.881S45.114,16.96,44.984,14.675Zm-3.88,17.5a12.093,12.093,0,0,1-.733,4.01,6.6,6.6,0,0,1-1.617,2.479,6.877,6.877,0,0,1-2.479,1.617,12.093,12.093,0,0,1-4.01.733c-2.156.108-2.953.129-8.623.129s-6.467,0-8.623-.129a12.352,12.352,0,0,1-4.182-.647,7.049,7.049,0,0,1-2.371-1.617,6.467,6.467,0,0,1-1.6-2.479,11.942,11.942,0,0,1-.862-4.1c0-2.156-.129-2.953-.129-8.623s0-6.467.129-8.623a11.942,11.942,0,0,1,.754-4.1,6.467,6.467,0,0,1,1.7-2.371,6.769,6.769,0,0,1,2.371-1.725,12.352,12.352,0,0,1,4.1-.733c2.156,0,2.953-.129,8.623-.129s6.467,0,8.623.129a12.093,12.093,0,0,1,4.01.733,6.6,6.6,0,0,1,2.565,1.725,6.6,6.6,0,0,1,1.617,2.371,12.093,12.093,0,0,1,.733,4.1c.108,2.156.129,2.953.129,8.623S41.212,30.024,41.1,32.179ZM23.557,12.5a11.037,11.037,0,1,0,7.84,3.225,11.059,11.059,0,0,0-7.84-3.225Zm0,18.237a7.178,7.178,0,1,1,7.178-7.178,7.178,7.178,0,0,1-7.178,7.178Z" transform="translate(-2 -2)" fill="#5f5f5f"/>
</svg>
