<svg xmlns="http://www.w3.org/2000/svg" width="46.156" height="46.267" viewBox="0 0 46.156 46.267">
  <path id="linkedin-1288233" d="M35.888,17.624a11.681,11.681,0,0,0-5.53,1.389,2.154,2.154,0,0,0-2.015-1.389H19.721a2.154,2.154,0,0,0-2.156,2.156V45.647A2.154,2.154,0,0,0,19.721,47.8h8.623A2.154,2.154,0,0,0,30.5,45.647V33.791a2.156,2.156,0,0,1,4.311,0V45.647A2.154,2.154,0,0,0,36.966,47.8h8.623a2.154,2.154,0,0,0,2.156-2.156V29.48A11.871,11.871,0,0,0,35.888,17.624Zm7.545,25.868H39.122v-9.7a6.467,6.467,0,0,0-12.934,0v9.7H21.876V21.935h4.311v1.516a2.157,2.157,0,0,0,3.84,1.347A7.507,7.507,0,0,1,43.433,29.48ZM13.254,17.624H4.631a2.154,2.154,0,0,0-2.156,2.156V45.647A2.154,2.154,0,0,0,4.631,47.8h8.623a2.154,2.154,0,0,0,2.156-2.156V19.779a2.154,2.154,0,0,0-2.156-2.156ZM11.1,43.492H6.787V21.935H11.1ZM8.974,1.549a6.969,6.969,0,1,0-.122,13.919h.061A6.97,6.97,0,1,0,8.974,1.549Zm-.061,9.608H8.852A2.634,2.634,0,0,1,5.9,8.508C5.9,6.9,7.107,5.86,8.974,5.86a2.659,2.659,0,0,1,3.01,2.648C11.984,10.117,10.778,11.157,8.913,11.157Z" transform="translate(-1.589 -1.536)" fill="#5f5f5f"/>
</svg>
