<svg id="Layer_1" data-name="Layer 1" xmlns="http://www.w3.org/2000/svg" viewBox="0 0 79.33 39.69"><defs><style>.cls-1{fill:#303030;}</style></defs><path class="cls-1" d="M1776,73.59a3.09,3.09,0,0,1,3.27-1.88q36.52,0,73,0c1.52,0,2.41.5,2.83,1.57a2.48,2.48,0,0,1-2.05,3.37c-.34,0-.67,0-1,0q-36.4,0-72.82,0a3.09,3.09,0,0,1-3.27-1.88Z" transform="translate(-1776 -54.36)"/><path class="cls-1" d="M1776,56.24a3.08,3.08,0,0,1,3.27-1.88q36.52,0,73,0c1.52,0,2.41.49,2.83,1.57a2.47,2.47,0,0,1-2.05,3.36,8.51,8.51,0,0,1-1,0q-36.4,0-72.82,0a3.09,3.09,0,0,1-3.27-1.88Z" transform="translate(-1776 -54.36)"/><path class="cls-1" d="M1828.06,89.08h24.16a8,8,0,0,1,.85,0,2.47,2.47,0,0,1,0,4.93c-.2,0-.41,0-.62,0h-48.71a2.63,2.63,0,0,1-2.68-1.46,2.46,2.46,0,0,1,2-3.49,8,8,0,0,1,.85,0Z" transform="translate(-1776 -54.36)"/></svg>