<svg id="Layer_1" data-name="Layer 1" xmlns="http://www.w3.org/2000/svg" xmlns:xlink="http://www.w3.org/1999/xlink" viewBox="0 0 1691.39 1361.85"><defs><style>.cls-1{fill:#d5f7f2;}.cls-2{fill:#71e2d2;}.cls-3{fill:#008880;}.cls-4{fill:#28c6af;}.cls-5{clip-path:url(#clip-path);}.cls-6{fill:url(#linear-gradient);}.cls-7{fill:url(#linear-gradient-2);}.cls-8{fill:#ff9e3e;}.cls-9{fill:url(#linear-gradient-3);}.cls-10{fill:#050542;}.cls-11{fill:url(#linear-gradient-4);}.cls-12{fill:url(#linear-gradient-5);}.cls-13{fill:url(#linear-gradient-6);}.cls-14{fill:url(#linear-gradient-7);}.cls-15{fill:#bbe0f8;}.cls-16{fill:#72c4f4;}.cls-17{fill:url(#linear-gradient-8);}.cls-18{fill:#282c75;}</style><clipPath id="clip-path"><path class="cls-1" d="M181.61,481C59,505.65,34.33,576.58,28.06,660.31c-6.73,89.84,31.68,179.81,84,251,153.48,208.72,424.48,307.07,683.54,305,185.77-1.49,370.95-49.17,534.49-137.29,101.29-54.59,196.92-127.37,253.23-227.72,89.06-158.71,117.12-383.5,38.78-547.77-61.18-128.27-167.38-163.07-267.16-194.12-64.87-20.19-135.17-12.21-201.37,3-34.4,7.91-68.33,17.72-101.79,29C731.17,248.93,536.12,407.23,181.61,481"/></clipPath><linearGradient id="linear-gradient" x1="902.52" y1="488.47" x2="902.52" y2="429.12" gradientUnits="userSpaceOnUse"><stop offset="0.51" stop-color="#ffacaa"/><stop offset="0.86" stop-color="#fb6b67"/></linearGradient><linearGradient id="linear-gradient-2" x1="901.97" y1="453.65" x2="902.49" y2="386.71" gradientUnits="userSpaceOnUse"><stop offset="0.42" stop-color="#ffacaa"/><stop offset="0.55" stop-color="#ffa7a5"/><stop offset="0.7" stop-color="#fe9a97"/><stop offset="0.87" stop-color="#fc8380"/><stop offset="1" stop-color="#fb6b67"/></linearGradient><linearGradient id="linear-gradient-3" x1="7598.6" y1="1633.33" x2="7625.27" y2="1468" gradientTransform="matrix(-0.25, -0.97, -0.97, 0.25, 4123.9, 7876.23)" gradientUnits="userSpaceOnUse"><stop offset="0.3" stop-color="#ffacac"/><stop offset="0.39" stop-color="#ffa6a5"/><stop offset="0.52" stop-color="#fd9492"/><stop offset="0.68" stop-color="#fb7672"/><stop offset="0.74" stop-color="#fa6964"/></linearGradient><linearGradient id="linear-gradient-4" x1="736.94" y1="685.88" x2="789.57" y2="542.33" gradientUnits="userSpaceOnUse"><stop offset="0.52" stop-color="#ffacaa"/><stop offset="0.62" stop-color="#ffa7a5"/><stop offset="0.73" stop-color="#fe9896"/><stop offset="0.85" stop-color="#fc807d"/><stop offset="0.94" stop-color="#fb6b67"/></linearGradient><linearGradient id="linear-gradient-5" x1="-820.64" y1="1410.05" x2="-1000.31" y2="1500.92" gradientTransform="translate(2459.64 255.44) rotate(44.58)" xlink:href="#linear-gradient-4"/><linearGradient id="linear-gradient-6" x1="1050.81" y1="683.61" x2="1103.44" y2="540.07" gradientTransform="matrix(-1, 0, 0, 1, 2117.85, 0)" xlink:href="#linear-gradient-4"/><linearGradient id="linear-gradient-7" x1="-245.54" y1="969.36" x2="-425.21" y2="1060.22" gradientTransform="matrix(-0.82, 0.57, 0.57, 0.82, 154.94, 4.96)" xlink:href="#linear-gradient-4"/><linearGradient id="linear-gradient-8" x1="891.32" y1="1202.6" x2="853.28" y2="1009.19" gradientTransform="matrix(1, 0, 0, 1, 0, 0)" xlink:href="#linear-gradient-3"/></defs><g id="leave_plant" data-name="leave plant"><path class="cls-2" d="M416,588.65s-60.21-418.14,92.68-475.49-24.53,472.06-24.53,472.06Z"/><path class="cls-3" d="M445.25,588.33h-.17A1.25,1.25,0,0,1,444,586.9c.15-1.1,15.65-111.7,35.15-225.29,26.22-152.72,46.84-237.86,61.31-253a1.25,1.25,0,1,1,1.81,1.73c-33.78,35.47-95.17,472.54-95.79,477A1.24,1.24,0,0,1,445.25,588.33Z"/><path class="cls-3" d="M507.22,221.37a1.25,1.25,0,0,1-.61-2.35l63.49-35.45a1.26,1.26,0,0,1,1.71.49,1.25,1.25,0,0,1-.49,1.7l-63.49,35.45A1.21,1.21,0,0,1,507.22,221.37Z"/><path class="cls-3" d="M501.52,248.75a1.25,1.25,0,0,1-1.06-.57l-51.93-80.75a1.26,1.26,0,1,1,2.11-1.36l51.93,80.75a1.25,1.25,0,0,1-.38,1.73A1.19,1.19,0,0,1,501.52,248.75Z"/><path class="cls-3" d="M491.34,301.56a1.25,1.25,0,0,1-.53-2.39l73.06-33.65a1.25,1.25,0,1,1,1,2.27l-73.06,33.66A1.39,1.39,0,0,1,491.34,301.56Z"/><path class="cls-3" d="M484.79,337.74a1.24,1.24,0,0,1-1-.44l-67.28-78.82a1.25,1.25,0,1,1,1.9-1.63l67.28,78.83a1.25,1.25,0,0,1-.95,2.06Z"/><path class="cls-3" d="M471.86,414a1.25,1.25,0,0,1-.56-2.37l71.09-35.86a1.25,1.25,0,0,1,1.13,2.23l-71.09,35.87A1.28,1.28,0,0,1,471.86,414Z"/><path class="cls-3" d="M465.41,454.12a1.26,1.26,0,0,1-1-.45l-60.67-73.44a1.25,1.25,0,1,1,1.93-1.6l60.68,73.44a1.25,1.25,0,0,1-1,2.05Z"/><path class="cls-3" d="M454.63,524.12a1.27,1.27,0,0,1-.93-.41l-49-53.55a1.25,1.25,0,1,1,1.85-1.69l49,53.55a1.26,1.26,0,0,1-.92,2.1Z"/><path class="cls-3" d="M451.36,546.06a1.26,1.26,0,0,1-.5-2.41l52.67-23.12a1.26,1.26,0,0,1,1,2.3L451.87,546A1.34,1.34,0,0,1,451.36,546.06Z"/><path class="cls-3" d="M449.75,557.06a1.25,1.25,0,0,1-.47-2.42l32-12.83a1.26,1.26,0,0,1,.94,2.33l-32,12.83A1.25,1.25,0,0,1,449.75,557.06Z"/><path class="cls-3" d="M482.56,350.53a1.24,1.24,0,0,1-.94-.43L440.68,303a1.25,1.25,0,1,1,1.89-1.64l40.94,47.09a1.26,1.26,0,0,1-.12,1.77A1.24,1.24,0,0,1,482.56,350.53Z"/><path class="cls-3" d="M509.61,210.4a1.25,1.25,0,0,1-.65-2.32l32.2-19.66a1.25,1.25,0,1,1,1.31,2.14l-32.21,19.66A1.28,1.28,0,0,1,509.61,210.4Z"/><path class="cls-4" d="M373.53,616.28S177.83,22.15,314,32.59,435.15,616.13,435.15,616.13Z"/><path class="cls-3" d="M407.13,617.4a1.2,1.2,0,0,1-1.18-1L302.42,33.27a1.2,1.2,0,0,1,2.36-.42L408.31,616a1.2,1.2,0,0,1-1,1.39Z"/><path class="cls-3" d="M314,93.05a1.25,1.25,0,0,1-.77-.27,1.2,1.2,0,0,1-.16-1.69l34.82-42a1.19,1.19,0,0,1,1.84,1.52L315,92.62A1.22,1.22,0,0,1,314,93.05Z"/><path class="cls-3" d="M320,126.44a1.23,1.23,0,0,1-.49-.1l-54.56-24.87a1.2,1.2,0,1,1,1-2.18l54.56,24.87a1.19,1.19,0,0,1-.5,2.28Z"/><path class="cls-3" d="M326.36,162.44a1.22,1.22,0,0,1-.88-.38,1.19,1.19,0,0,1,.06-1.69l56.93-53.2a1.2,1.2,0,0,1,1.63,1.75l-56.93,53.2A1.2,1.2,0,0,1,326.36,162.44Z"/><path class="cls-3" d="M334.17,206.45a1.26,1.26,0,0,1-.43-.08l-65.19-25.28a1.2,1.2,0,0,1,.87-2.23l65.18,25.27a1.2,1.2,0,0,1-.43,2.32Z"/><path class="cls-3" d="M339.61,237.1a1.21,1.21,0,0,1-.94-.46,1.19,1.19,0,0,1,.2-1.68l65.43-51.58a1.2,1.2,0,0,1,1.49,1.88l-65.44,51.58A1.21,1.21,0,0,1,339.61,237.1Z"/><path class="cls-3" d="M347,278.67a1.23,1.23,0,0,1-.42-.07l-67.73-25.23a1.2,1.2,0,0,1,.84-2.24l67.73,25.22a1.2,1.2,0,0,1-.42,2.32Z"/><path class="cls-3" d="M358,340.54a1.2,1.2,0,0,1-.85-2.05l62.28-61.62a1.2,1.2,0,0,1,1.68,1.71L358.82,340.2A1.19,1.19,0,0,1,358,340.54Z"/><path class="cls-3" d="M364.85,379.26a1.41,1.41,0,0,1-.35-.05L301,359.76a1.2,1.2,0,0,1,.7-2.29l63.54,19.45a1.2,1.2,0,0,1-.35,2.34Z"/><path class="cls-3" d="M375,436.58a1.2,1.2,0,0,1-.86-2l54.62-56.32a1.2,1.2,0,1,1,1.72,1.66l-54.62,56.32A1.18,1.18,0,0,1,375,436.58Z"/><path class="cls-3" d="M379,458.76a1.34,1.34,0,0,1-.35-.05l-57.19-17.42a1.2,1.2,0,0,1,.7-2.3l57.18,17.42a1.21,1.21,0,0,1,.8,1.5A1.19,1.19,0,0,1,379,458.76Z"/><path class="cls-3" d="M386.43,500.79a1.19,1.19,0,0,1-.77-2.11l46.28-39a1.2,1.2,0,1,1,1.54,1.84l-46.28,39A1.18,1.18,0,0,1,386.43,500.79Z"/><path class="cls-3" d="M391.27,528.07a1.32,1.32,0,0,1-.39-.06l-47.75-16.35a1.2,1.2,0,0,1,.78-2.27l47.75,16.35a1.2,1.2,0,0,1-.39,2.33Z"/><path class="cls-3" d="M396.28,556.25a1.16,1.16,0,0,1-.92-.43,1.19,1.19,0,0,1,.15-1.69l38.35-32a1.2,1.2,0,0,1,1.53,1.84L397,556A1.15,1.15,0,0,1,396.28,556.25Z"/><path class="cls-3" d="M401.69,586.76a1.48,1.48,0,0,1-.35,0l-41.91-12.88a1.2,1.2,0,0,1-.79-1.5,1.19,1.19,0,0,1,1.49-.79L402,584.42a1.19,1.19,0,0,1,.8,1.49A1.21,1.21,0,0,1,401.69,586.76Z"/><path class="cls-3" d="M367,391.45a1.24,1.24,0,0,1-.33,0l-26.16-7.36a1.2,1.2,0,0,1,.65-2.31l26.16,7.36a1.2,1.2,0,0,1-.32,2.35Z"/><path class="cls-3" d="M342.05,250.84a1.19,1.19,0,0,1-.91-.42,1.2,1.2,0,0,1,.13-1.69l29.93-25.56a1.2,1.2,0,1,1,1.56,1.82l-29.93,25.56A1.22,1.22,0,0,1,342.05,250.84Z"/><path class="cls-3" d="M321.9,137.36a1.22,1.22,0,0,1-.41-.07l-36-13.07a1.2,1.2,0,1,1,.82-2.25l36,13.06a1.2,1.2,0,0,1-.41,2.33Z"/><path class="cls-3" d="M310.39,72.53a1.2,1.2,0,0,1-.65-.19l-31-20.26a1.2,1.2,0,0,1,1.31-2l31,20.26a1.2,1.2,0,0,1-.66,2.2Z"/><path class="cls-3" d="M380.82,469.2a1,1,0,0,1-.33-.05l-34.83-9.86a1.2,1.2,0,0,1,.66-2.3l34.83,9.86a1.2,1.2,0,0,1-.33,2.35Z"/><path class="cls-2" d="M333,544.34S76.75,309.82,89.9,209.28s213.28,5.51,305.73,326.18Z"/><path class="cls-3" d="M369.61,538.89a1.52,1.52,0,0,1-1.26-.69c-2-3.1-199.15-309.84-268.79-353a1.5,1.5,0,1,1,1.58-2.55c29.51,18.29,83.88,83.42,161.59,193.58,57.83,82,107.65,159.57,108.15,160.35a1.51,1.51,0,0,1-1.27,2.31Z"/><path class="cls-3" d="M161.09,245.6a1.5,1.5,0,0,1-1.5-1.5l-.11-64.67a1.5,1.5,0,0,1,1.5-1.5h0a1.5,1.5,0,0,1,1.5,1.49l.11,64.67a1.51,1.51,0,0,1-1.5,1.51Z"/><path class="cls-3" d="M144.24,226.15h0l-54.56-1.36a1.5,1.5,0,0,1,.07-3l54.57,1.36a1.5,1.5,0,0,1,0,3Z"/><path class="cls-3" d="M197.94,291.76h-.18a1.49,1.49,0,0,1-1.31-1.66L206,209.65a1.5,1.5,0,0,1,3,.35l-9.58,80.44A1.5,1.5,0,0,1,197.94,291.76Z"/><path class="cls-3" d="M117.14,296.85a1.5,1.5,0,0,1-.27-3l74.37-13.42a1.5,1.5,0,0,1,.53,2.95L117.4,296.82Z"/><path class="cls-3" d="M234.65,341.06a1.73,1.73,0,0,1-.38-.05,1.5,1.5,0,0,1-1.07-1.83l21.34-81.61a1.5,1.5,0,1,1,2.9.76L236.1,339.94A1.5,1.5,0,0,1,234.65,341.06Z"/><path class="cls-3" d="M164.06,364.88a1.5,1.5,0,0,1-.26-3l76.38-13.73a1.5,1.5,0,1,1,.54,2.95l-76.39,13.74Z"/><path class="cls-3" d="M275.67,398.81a1.51,1.51,0,0,1-1.42-2l25.69-77.39a1.5,1.5,0,1,1,2.85.95l-25.7,77.39A1.5,1.5,0,0,1,275.67,398.81Z"/><path class="cls-3" d="M210.37,420.39a1.5,1.5,0,0,1-.22-3L283,406.67a1.52,1.52,0,0,1,1.71,1.27,1.5,1.5,0,0,1-1.27,1.7l-72.83,10.73A.82.82,0,0,1,210.37,420.39Z"/><path class="cls-3" d="M312,451.84a1.55,1.55,0,0,1-.47-.08,1.5,1.5,0,0,1-.95-1.9l22.86-68a1.5,1.5,0,1,1,2.84,1l-22.85,68A1.51,1.51,0,0,1,312,451.84Z"/><path class="cls-3" d="M260.71,474.78a1.5,1.5,0,0,1-.19-3L322,463.93a1.5,1.5,0,1,1,.38,3l-61.49,7.87Z"/><path class="cls-3" d="M348.18,506a1.32,1.32,0,0,1-.55-.11,1.5,1.5,0,0,1-.85-1.94L366,455.52a1.5,1.5,0,1,1,2.78,1.11l-19.24,48.42A1.5,1.5,0,0,1,348.18,506Z"/><path class="cls-3" d="M305.06,519.3a1.5,1.5,0,0,1-.14-3l48.77-4.68a1.5,1.5,0,1,1,.29,3l-48.78,4.69Z"/><path class="cls-3" d="M240.45,351.15a1.23,1.23,0,0,1-.42-.07,1.49,1.49,0,0,1-1-1.86l13.78-47a1.5,1.5,0,0,1,2.88.85l-13.78,47A1.51,1.51,0,0,1,240.45,351.15Z"/><path class="cls-3" d="M191.51,283.42h-.16a1.5,1.5,0,0,1-1.33-1.65l4.54-43.25a1.5,1.5,0,1,1,3,.31L193,282.08A1.5,1.5,0,0,1,191.51,283.42Z"/><path class="cls-3" d="M153.24,236.38h-.05l-40.61-1.29a1.5,1.5,0,0,1,.09-3l40.62,1.29a1.5,1.5,0,0,1,0,3Z"/><path class="cls-3" d="M239.83,427.57a1.5,1.5,0,0,1-.21-3l50.69-7.3a1.5,1.5,0,1,1,.42,3l-50.68,7.3Z"/><path class="cls-3" d="M172.08,323.42a1.5,1.5,0,0,1-.25-3L216,313a1.5,1.5,0,0,1,.5,3l-44.12,7.47Z"/></g><g id="ground"><path class="cls-1" d="M181.61,481C59,505.65,34.33,576.58,28.06,660.31c-6.73,89.84,31.68,179.81,84,251,153.48,208.72,424.48,307.07,683.54,305,185.77-1.49,370.95-49.17,534.49-137.29,101.29-54.59,196.92-127.37,253.23-227.72,89.06-158.71,117.12-383.5,38.78-547.77-61.18-128.27-167.38-163.07-267.16-194.12-64.87-20.19-135.17-12.21-201.37,3-34.4,7.91-68.33,17.72-101.79,29C731.17,248.93,536.12,407.23,181.61,481"/><g class="cls-5"><path class="cls-4" d="M160.17,736.55c11.69-69.58-43.78-72-84.56-159.12C40.35,502.09,3.22,508.68-6.18,511.84l0-.06-.46.24a15.65,15.65,0,0,0-1.78.73l.12.25c-8.32,5.42-36.51,30.45.71,104.84,43,86,10.53,131,72.37,165S42.44,874.21,95.9,908.43s57.93,54,57.93,54L196,931.6l49.75-13.8S233,902,239.34,838.87,148.48,806.14,160.17,736.55Z"/><path class="cls-3" d="M196,932.6a1,1,0,0,1-.9-.56L-2.68,529.15a1,1,0,0,1,.46-1.34,1,1,0,0,1,1.34.45l197.77,402.9a1,1,0,0,1-.46,1.33A1,1,0,0,1,196,932.6Z"/><path class="cls-3" d="M31.75,598h-.14a1,1,0,0,1-.85-1.13L38.54,540a1,1,0,1,1,2,.27l-7.78,56.9A1,1,0,0,1,31.75,598Z"/><path class="cls-3" d="M49.07,633.31a1,1,0,0,1-.52-.15l-60.11-37a1,1,0,0,1-.33-1.38,1,1,0,0,1,1.38-.33l60.11,37a1,1,0,0,1,.32,1.38A1,1,0,0,1,49.07,633.31Z"/><path class="cls-3" d="M84.88,706.26l-.16,0a1,1,0,0,1-.82-1.15l12-71.56a1,1,0,0,1,1.16-.82,1,1,0,0,1,.82,1.15l-12,71.56A1,1,0,0,1,84.88,706.26Z"/><path class="cls-3" d="M98.38,736a1,1,0,0,1-.52-.15L24,691a1,1,0,0,1,1-1.71l73.89,44.9a1,1,0,0,1,.33,1.38A1,1,0,0,1,98.38,736Z"/><path class="cls-3" d="M125.29,788.57l-.2,0a1,1,0,0,1-.78-1.18l20.16-97a1,1,0,0,1,1.19-.77,1,1,0,0,1,.77,1.18l-20.16,97A1,1,0,0,1,125.29,788.57Z"/><path class="cls-3" d="M156.17,851.48a1,1,0,0,1-.34-.06l-61.06-22a1,1,0,0,1,.68-1.89l61.06,22.06a1,1,0,0,1-.34,1.94Z"/><path class="cls-3" d="M174.08,888a.82.82,0,0,1-.34-.06,1,1,0,0,1-.59-1.28l29.36-80a1,1,0,1,1,1.87.69l-29.36,80A1,1,0,0,1,174.08,888Z"/><path class="cls-3" d="M187.31,914.92h-.19l-88-17a1,1,0,1,1,.38-2l88,17a1,1,0,0,1-.19,2Z"/><path class="cls-2" d="M239.74,767.13c30.64-43.55-6.33-63.27-5.68-135.88.56-62.77-26.86-70.39-34.29-71.3v-.05h-.4a13.87,13.87,0,0,0-1.45-.08V560c-7.42,1-34.77,8.83-33.69,71.6,1.25,72.59-35.55,92.62-4.54,135.92s-45,54.91-19.73,95.63,21.84,55.63,21.84,55.63l38.73-7.23,38.37,6.82s-3.52-14.88,21.37-55.81S209.1,810.69,239.74,767.13Z"/><path class="cls-3" d="M200.53,912.33a.75.75,0,0,1-.75-.75l-3.27-338.71a.76.76,0,1,1,1.51,0l3.27,338.72a.76.76,0,0,1-.75.76Z"/><path class="cls-3" d="M197.82,631a.81.81,0,0,1-.42-.12.77.77,0,0,1-.21-1L221,593.68a.75.75,0,1,1,1.26.83L198.45,630.7A.77.77,0,0,1,197.82,631Z"/><path class="cls-3" d="M198.11,660.71a.77.77,0,0,1-.64-.34l-28.85-44.78a.75.75,0,0,1,.23-1.05.76.76,0,0,1,1,.23l28.85,44.78a.75.75,0,0,1-.23,1A.72.72,0,0,1,198.11,660.71Z"/><path class="cls-3" d="M198.7,722a.74.74,0,0,1-.44-.14.75.75,0,0,1-.18-1l31.52-44.79a.75.75,0,1,1,1.23.87l-31.52,44.79A.74.74,0,0,1,198.7,722Z"/><path class="cls-3" d="M198.18,746.71a.74.74,0,0,1-.63-.34l-35.66-54.66a.75.75,0,0,1,.22-1,.76.76,0,0,1,1,.22l35.65,54.65a.76.76,0,0,1-.22,1.05A.78.78,0,0,1,198.18,746.71Z"/><path class="cls-3" d="M199.37,791.25a.78.78,0,0,1-.46-.16.75.75,0,0,1-.14-1.06l45.34-59.44a.76.76,0,1,1,1.2.92L200,791A.78.78,0,0,1,199.37,791.25Z"/><path class="cls-3" d="M199.88,844.14a.76.76,0,0,1-.54-.23L165,809a.75.75,0,1,1,1.07-1.06l34.37,34.92a.76.76,0,0,1,0,1.07A.79.79,0,0,1,199.88,844.14Z"/><path class="cls-3" d="M200.17,874.82a.78.78,0,0,1-.54-.23.76.76,0,0,1,0-1.07l46.07-44.9a.76.76,0,0,1,1.07,0,.75.75,0,0,1,0,1.06L200.7,874.6A.79.79,0,0,1,200.17,874.82Z"/><path class="cls-3" d="M200.39,897.47a.76.76,0,0,1-.45-.15l-54.38-40.26a.75.75,0,0,1-.16-1.06.76.76,0,0,1,1.06-.16l54.38,40.27a.75.75,0,0,1-.45,1.36Z"/><path class="cls-2" d="M1071.59,788.68c80.07-43.67,161.65-85.42,248-114.71s178.13-45.89,269-38.05c39.94,3.45,82.19,13,109.74,42.16,32.66,34.54,36.15,87.72,27.85,134.53-4.25,24-11.22,47.79-24,68.51-14.52,23.53-36,42.11-59.3,57C1560.52,990.6,1455,998,1360.13,974.75s-180.67-74.35-259.4-132.18c-17.59-12.92-37-31.55-31.71-52.74"/><path class="cls-2" d="M348.18,844.51s229.16-136.7,591.64-62.46h0L408.6,1073.27,348.18,844.51"/><ellipse class="cls-4" cx="1290.47" cy="805.91" rx="105.57" ry="11.72"/><path class="cls-2" d="M1355.13,443.7s-11.1-6.55-24.73-46.35-13.4-83.63,9.41-96.26,41.74-6.31,53.28,27S1388.94,465.05,1355.13,443.7Z"/><path class="cls-3" d="M1317.79,809.84h-.1a.84.84,0,0,1-.74-.92l37-342.65c12.09-66.14,2-159.76,1.9-160.7a.83.83,0,1,1,1.66-.18c.1.94,10.22,94.8-1.91,161.12l-37,342.59A.82.82,0,0,1,1317.79,809.84Z"/><path class="cls-4" d="M1391.77,438.14s-14.29-45.11,17-82.63,58.7-50.23,74.31-54.77c6.86-2,23.42-12.42,25.21.47,4.11,29.58.68,63.93-22,85.72a69.57,69.57,0,0,1-6.29,5.34C1439.7,422.52,1398.77,450.35,1391.77,438.14Z"/><path class="cls-3" d="M1296.64,808.86l-.18,0a.85.85,0,0,1-.63-1c3.34-14.41,82.05-353.12,97-381.79S1499.24,302,1500.16,301a.84.84,0,0,1,1.18,0,.83.83,0,0,1,0,1.18c-.92,1-92.31,96.19-107.11,124.65s-96,377.87-96.8,381.39A.84.84,0,0,1,1296.64,808.86Z"/><path class="cls-4" d="M1319.36,508.51s-43.21-13.71-45.81-94.74,33.63-100.53,47.25-85.7,51.07,36.19,44.3,101S1335.47,519.21,1319.36,508.51Z"/><path class="cls-2" d="M1340.5,516.17s-25.88-40.27,38.12-89.33,118.47-46,105.12-10.58S1375,540.82,1340.5,516.17Z"/><path class="cls-3" d="M1277.69,806.74h-.14a.84.84,0,0,1-.69-1c.39-2.36,39.29-236.31,62.88-289.94,6.83-15.53,25.37-41.71,74.89-78.21a640.87,640.87,0,0,1,56.83-37.32.83.83,0,0,1,1.14.32.82.82,0,0,1-.31,1.13A645.63,645.63,0,0,0,1415.6,439c-49.21,36.28-67.58,62.19-74.33,77.54C1317.76,570,1278.9,803.69,1278.51,806A.84.84,0,0,1,1277.69,806.74Z"/><path class="cls-3" d="M1262.62,806.74h-.16a.84.84,0,0,1-.66-1c.47-2.36,47.07-237,63-295.15,15.81-57.9-17.31-174.82-17.65-176a.84.84,0,0,1,1.61-.46c.33,1.18,33.59,118.54,17.65,176.89-15.88,58.11-62.46,292.68-62.93,295A.83.83,0,0,1,1262.62,806.74Z"/><path class="cls-3" d="M78.32,946c-5.66-22.31-5.22-47.09,4.67-67.59s30.17-35.68,51.5-34.76c19.67.85,36.92,14.43,50.84,29.52,3.39-12.41,6.9-25.09,13.93-35.54s18.41-18.43,30.3-17.3c16.33,1.55,27.22,18.52,35.05,34.13C262,844,272,833.39,282,834.06s18.1,9.88,21.05,20.21c3.92-18.19,25.57-28.82,40.76-20,2.07,1.19,4.13,2.71,6.47,2.74,3.27,0,5.86-2.79,8.28-5.18,17.72-17.55,45-19.56,67.9-11.73s42.46,24,61.51,39.8c-89.71,60.22-188.46,102.55-286.61,144.54l-58.6,25.08c-1.95.83-4,1.68-6.09,1.41-2.62-.33-4.75-2.35-6.67-4.32a208.45,208.45,0,0,1-49.6-85.47"/><path class="cls-2" d="M140.63,983.51c-2.87-12.5,5.8-25.71,17.59-30.77s25.61-3.17,37.35,2c-2.58-11.26-.38-24,7.44-32.48s21.63-11.6,31.52-5.62c-5.38-17.84,4.15-39.45,21.64-45.86s39.81,5.5,42.62,23.91c2.9-9.47,14.35-15.32,23.73-12.11,2.65.91,5.34,2.45,8.07,1.81,2.88-.66,4.64-3.46,6.41-5.82,9.65-12.84,27.82-17.46,43.4-13.58s28.61,15,37.72,28.26c-72.52,27.28-136.69,72.35-202,114.07-14.78,9.45-31.61,19.14-48.8,15.66-19.81-4-32.82-28-25.39-46.76"/><path class="cls-3" d="M362.88,844.58a1.46,1.46,0,0,1-1.37-1.55c3.25-50.62-8.25-113.51-18.53-157.55-11.26-48.23-23.53-84.88-23.65-85.24l2.76-1c.12.37,12.43,37.13,23.72,85.49,10.33,44.25,21.89,107.49,18.62,158.5a1.46,1.46,0,0,1-1.55,1.36Z"/><path class="cls-4" d="M358.6,751.39s-3.73-47.28-61.23-49a41.45,41.45,0,0,0-11,1.14c-8.09,1.94-23,6.41-27.88,13.73,0,0,17.93,6.93,45.41,26.53C319.2,754.7,356.1,770.23,358.6,751.39Z"/><path class="cls-4" d="M357.44,747.89s-11.33-32.14,12.23-72.21,79.51-14.28,79.51-14.28S410.81,774.11,357.44,747.89Z"/><path class="cls-4" d="M350.79,703s-38.53,11.12-52-27.92,16.9-91,16.9-91S397,642,350.79,703Z"/><path class="cls-4" d="M361.59,798.74s-.24-40.36-46.15-43.63-64.31,38.74-64.31,38.74,61.28-.31,82,9.32S361.59,798.74,361.59,798.74Z"/><path class="cls-4" d="M358.05,797.08s7.89-55.79,72.55-43l37,7.87s-35.29,26.17-55.68,38.18S358.05,797.08,358.05,797.08Z"/><path class="cls-3" d="M347.17,700.92a.56.56,0,0,1-.41-.38L316.05,592.38a.55.55,0,0,1,.37-.67.54.54,0,0,1,.67.37L347.8,700.24a.54.54,0,0,1-.37.67A.77.77,0,0,1,347.17,700.92Z"/><path class="cls-3" d="M328.22,634.19l-.07,0a.54.54,0,0,1-.32-.69l9.67-26.09a.53.53,0,0,1,.69-.32.54.54,0,0,1,.32.7l-9.67,26.09A.55.55,0,0,1,328.22,634.19Z"/><path class="cls-3" d="M329.4,638.33l-.07,0-26.69-9.57a.54.54,0,0,1-.32-.69.55.55,0,0,1,.69-.33l26.68,9.57a.54.54,0,0,1-.29,1Z"/><path class="cls-3" d="M334.65,656.83l-.14-.05a.54.54,0,0,1-.22-.73l14.91-28.48a.54.54,0,0,1,1,.5l-14.92,28.48A.54.54,0,0,1,334.65,656.83Z"/><path class="cls-3" d="M338.93,671.91l-.06,0-39-13a.54.54,0,1,1,.34-1l39,13a.54.54,0,0,1,.34.68A.56.56,0,0,1,338.93,671.91Z"/><path class="cls-3" d="M343.89,689.37l-.11,0a.55.55,0,0,1-.27-.72l14.8-32.24a.55.55,0,0,1,.72-.27.54.54,0,0,1,.26.72L344.5,689.07A.55.55,0,0,1,343.89,689.37Z"/><path class="cls-3" d="M345.52,695.09h-.06l-39.75-13.24a.54.54,0,0,1,.35-1l39.74,13.24a.54.54,0,0,1,.34.69A.53.53,0,0,1,345.52,695.09Z"/><path class="cls-3" d="M357,742.25l-.11,0a.54.54,0,0,1-.28-.71,171.42,171.42,0,0,1,22.06-35c13.46-16.58,36-37.5,66.72-43a.54.54,0,0,1,.19,1.06c-30.42,5.46-52.71,26.19-66.05,42.61a169.71,169.71,0,0,0-21.93,34.76A.54.54,0,0,1,357,742.25Z"/><path class="cls-3" d="M402.53,684.16h0a.55.55,0,0,1-.41-.65l6.42-27.35a.54.54,0,0,1,.64-.4h0a.54.54,0,0,1,.4.65l-6.42,27.34A.53.53,0,0,1,402.53,684.16Z"/><path class="cls-3" d="M382.24,701.76a.54.54,0,0,1-.42-.62l6.49-37.8a.55.55,0,0,1,.63-.44.53.53,0,0,1,.44.62l-6.5,37.81a.54.54,0,0,1-.62.44Z"/><path class="cls-3" d="M369,721a.57.57,0,0,1-.43-.46l-3.89-29.24a.53.53,0,0,1,.46-.61.54.54,0,0,1,.61.47l3.9,29.24a.55.55,0,0,1-.47.6Z"/><path class="cls-3" d="M360.49,737.11a.53.53,0,0,1-.43-.54.54.54,0,0,1,.55-.53l40.49,1.21a.52.52,0,0,1,.52.55.55.55,0,0,1-.55.53l-40.49-1.21Z"/><path class="cls-3" d="M374.76,712.77a.53.53,0,0,1-.42-.58.54.54,0,0,1,.6-.48l46.49,5.15a.54.54,0,1,1-.12,1.07l-46.49-5.15Z"/><path class="cls-3" d="M395.26,690.19a.54.54,0,0,1,.18-1.06l37.73,4.63a.54.54,0,0,1-.13,1.08l-37.73-4.64Z"/><path class="cls-3" d="M421.87,672.19a.54.54,0,0,1,.2-1.06l20,3.35a.54.54,0,0,1-.18,1.06l-20-3.35Z"/><path class="cls-3" d="M354.07,744.71a.57.57,0,0,1-.31-.19c-.06-.08-6.33-7.86-20.65-15.11-13.22-6.7-36.19-14.31-70.55-12.53a.54.54,0,1,1-.06-1.07c34.65-1.8,57.82,5.9,71.17,12.67,14.49,7.36,20.68,15,20.94,15.37a.53.53,0,0,1-.09.76A.56.56,0,0,1,354.07,744.71Z"/><path class="cls-3" d="M278.78,725.6a.52.52,0,0,1-.4-.36.53.53,0,0,1,.34-.68l20.95-6.82a.54.54,0,1,1,.33,1l-20.94,6.83A.54.54,0,0,1,278.78,725.6Z"/><path class="cls-3" d="M300.22,739.75a.54.54,0,0,1-.11-1l27.46-12.9a.54.54,0,0,1,.46,1l-27.46,12.89A.47.47,0,0,1,300.22,739.75Z"/><path class="cls-3" d="M325,754.14a.6.6,0,0,1-.37-.27.55.55,0,0,1,.22-.74l24.9-13.6a.54.54,0,1,1,.52,1l-24.9,13.6A.54.54,0,0,1,325,754.14Z"/><path class="cls-3" d="M341.57,734.24a.55.55,0,0,1-.4-.35L334,713a.54.54,0,1,1,1-.35l7.15,20.93a.54.54,0,0,1-.33.69A.57.57,0,0,1,341.57,734.24Z"/><path class="cls-3" d="M313.73,721.63a.52.52,0,0,1-.38-.3L306,705.64a.53.53,0,0,1,.26-.72.53.53,0,0,1,.71.26l7.35,15.69a.55.55,0,0,1-.26.72A.57.57,0,0,1,313.73,721.63Z"/><path class="cls-3" d="M287.83,717.26a.62.62,0,0,1-.22-.1l-11.18-8.55a.53.53,0,0,1-.1-.75.54.54,0,0,1,.76-.11l11.18,8.55a.54.54,0,0,1-.44,1Z"/><path class="cls-3" d="M363.1,791.67a.5.5,0,0,1-.37-.29.53.53,0,0,1,.24-.72c.52-.26,52.18-25.88,96.39-27.49a.55.55,0,0,1,.56.52.54.54,0,0,1-.52.56c-44,1.6-95.43,27.12-95.95,27.38A.54.54,0,0,1,363.1,791.67Z"/><path class="cls-3" d="M413.48,797.09h0l-39.16-10.56a.56.56,0,0,1-.38-.66.53.53,0,0,1,.66-.38l39.16,10.56a.53.53,0,0,1-.25,1Z"/><path class="cls-3" d="M436.41,783.32h0l-29.64-8.92a.55.55,0,0,1-.36-.67.54.54,0,0,1,.68-.37l29.63,8.93a.55.55,0,0,1,.36.67A.54.54,0,0,1,436.41,783.32Z"/><path class="cls-3" d="M453,773l-.09,0-15.65-6.24a.54.54,0,0,1,.4-1l15.65,6.25a.54.54,0,0,1-.31,1Z"/><path class="cls-3" d="M426.27,769l-.13,0a.54.54,0,0,1-.25-.72l6.81-13.88a.54.54,0,0,1,.72-.24.54.54,0,0,1,.25.72l-6.81,13.87A.53.53,0,0,1,426.27,769Z"/><path class="cls-3" d="M398.75,777.05l-.12,0a.54.54,0,0,1-.26-.72l11.2-23.53a.54.54,0,0,1,1,.47l-11.21,23.53A.52.52,0,0,1,398.75,777.05Z"/><path class="cls-3" d="M380.27,784h0a.53.53,0,0,1-.38-.66L387,757.3a.54.54,0,1,1,1,.28l-7.14,26.07A.55.55,0,0,1,380.27,784Z"/><path class="cls-3" d="M253.66,792.35a.51.51,0,0,1-.34-.23.53.53,0,0,1,.16-.74c24-15.79,51.53-15.08,70.41-11.7a144.2,144.2,0,0,1,35.58,11.22.53.53,0,0,1,.23.72.52.52,0,0,1-.72.24,143.26,143.26,0,0,0-35.31-11.12c-18.68-3.34-45.92-4-69.6,11.54A.54.54,0,0,1,253.66,792.35Z"/><path class="cls-3" d="M274.23,792.74a.5.5,0,0,1-.28-.16.54.54,0,0,1,0-.76l13.65-13a.54.54,0,1,1,.74.78l-13.64,13A.54.54,0,0,1,274.23,792.74Z"/><path class="cls-3" d="M303.05,794.61a.39.39,0,0,1-.24-.12.53.53,0,0,1-.05-.76l12.75-14.5a.54.54,0,0,1,.81.71l-12.75,14.5A.53.53,0,0,1,303.05,794.61Z"/><path class="cls-3" d="M332.26,800.83a.59.59,0,0,1-.27-.14.54.54,0,0,1,0-.76l13.8-14.23a.55.55,0,0,1,.77,0,.54.54,0,0,1,0,.76l-13.8,14.23A.54.54,0,0,1,332.26,800.83Z"/><path class="cls-3" d="M338.79,783.88a.57.57,0,0,1-.32-.21l-18.32-25.24a.54.54,0,1,1,.87-.63L339.34,783a.54.54,0,0,1-.12.76A.55.55,0,0,1,338.79,783.88Z"/><path class="cls-3" d="M307.23,778.86a.56.56,0,0,1-.29-.16L290.89,761a.54.54,0,0,1,0-.76.55.55,0,0,1,.77,0L307.74,778a.53.53,0,0,1,0,.76A.52.52,0,0,1,307.23,778.86Z"/><path class="cls-3" d="M278.48,781.52h-.05L264.8,777.3a.54.54,0,0,1-.35-.68.54.54,0,0,1,.67-.35l13.63,4.21a.55.55,0,0,1,.36.67A.54.54,0,0,1,278.48,781.52Z"/><path class="cls-4" d="M181.68,991.11s466.58-288.06,992-227c416,48.31,579.59,153,579.59,153s-320.71,317.73-622.74,368.72-866.15-20.56-948.89-294.66"/><path class="cls-2" d="M853.72,1224.81a54,54,0,0,1,61.45-63.61,15.48,15.48,0,0,1,24.32-18.42c-1.32-18.71,18.73-35.61,36.94-31.16-8.76-21.36-2.75-47.93,14.37-63.43s44.14-18.88,64.54-8c3.37-24.47,30.75-38.27,55.37-40.37,37.77-3.23,75.61,11.23,105.76,34.21s53.32,53.93,72.78,86.46c-87.3,64.47-198.46,85.61-305.9,100.92-43,6.12-86.46,11.61-129.7,7.73"/><path class="cls-3" d="M1566.13,1029.82c15-24.34-21.57-54.24-42.7-73.53s-55.41-27.4-78.52-10.54c-3,2.17-5.94,4.8-9.61,5.18-3.86.4-7.43-1.79-11-3.35a37.26,37.26,0,0,0-40.78,8.07c1-26.4-27-49.71-52.77-44s-41.27,38.66-29.22,62.17a32.43,32.43,0,0,0-54.78,21.24c-27.81-25.37-69.76-36.71-104.66-22.6s-57.72,56.4-44.86,91.78a32.39,32.39,0,0,0-41.69,42c-26.69-6.47-55.81,12.51-64.06,38.7s2.66,56.26,23.45,74.2C1015,1219.14,1486.18,1159.36,1566.13,1029.82Z"/><path class="cls-2" d="M727.57,1317.59s31.82-42.44,28-120.23,24.85-123,24.85-123-144.11,73.34-126.2,175.22Z"/><path class="cls-3" d="M687.39,1282.44a2.11,2.11,0,0,1-2.09-1.86c-.13-1.09-3.08-27,4.51-63.33a236.69,236.69,0,0,1,69.46-124.37,2.11,2.11,0,1,1,2.9,3.07A232.48,232.48,0,0,0,694,1218c-7.48,35.65-4.51,61.86-4.48,62.12a2.12,2.12,0,0,1-1.85,2.35Z"/><path class="cls-3" d="M492.93,1197.94s-11.9-150.38-64.66-209.7c0,0-107.83,93-36.08,207.94Z"/><path class="cls-2" d="M434.82,1199a2.11,2.11,0,0,1-2-1.56,607.74,607.74,0,0,1-14-75.09c-4.77-38.84-7.34-93.77,7.52-134.87a2.12,2.12,0,0,1,4,1.44c-27.95,77.29,6.25,206.12,6.6,207.42a2.1,2.1,0,0,1-2,2.66Z"/><path class="cls-2" d="M385.27,1168.11s18.22-79.18-25.21-168.36c0,0-82.25,57.61-55.92,143l81.13,25.34"/><path class="cls-3" d="M343.7,1152.47a2.12,2.12,0,0,1-2.07-1.7c-.15-.78-15-78.81,12.29-141.23a2.12,2.12,0,0,1,3.88,1.69c-26.76,61.2-12.17,138-12,138.72a2.12,2.12,0,0,1-1.67,2.48A2,2,0,0,1,343.7,1152.47Z"/><path class="cls-2" d="M496.56,1231.14S403,1119.38,540.05,927.23c0,0,95.09,192,55.75,316.82Z"/><path class="cls-3" d="M537.73,1205a2.1,2.1,0,0,1-2.08-1.76c-.07-.39-6.6-39.62-10.47-89-3.58-45.64-5.55-109.56,5.39-154.88a2.11,2.11,0,0,1,4.11,1c-10.81,44.77-8.84,108.2-5.29,153.52,3.85,49.2,10.36,88.28,10.42,88.67a2.1,2.1,0,0,1-1.73,2.43Z"/><path class="cls-3" d="M570.74,1208.21s18.45-137.06,127.33-188.27c0,0-9.22,189.06-29.27,252.2,0,0-92,.8-98.06-63.93"/><path class="cls-2" d="M617.5,1234.46l-.26,0a2.1,2.1,0,0,1-1.84-2.35,600.18,600.18,0,0,1,15.27-74.59c10.25-37.81,28.68-90,58.34-123.88a2.11,2.11,0,1,1,3.18,2.78c-29.12,33.28-47.31,84.83-57.44,122.21a594.24,594.24,0,0,0-15.16,74A2.11,2.11,0,0,1,617.5,1234.46Z"/></g></g><g id="leave"><path class="cls-2" d="M1341.23,1046.46s-203.9-56-219.69,50.25,80.41-20.1,126.36-14.36c0,0-165.13,117.75-91.9,158S1276.62,1148,1311.08,1136c0,0-70.36,190.45-21.54,153.12s70.36-140.72,70.36-140.72,11.37,105.72,55.35,176.57c6.89,11.11,23.76,8.6,27.2-4,10.87-39.87,23.48-115-9.32-182.62,0,0,21.53,41.86,82,64.45a16.75,16.75,0,0,0,22.58-14c3.49-34.94-6.69-106.89-137.63-141,0,0,76.74-25.84,138.17-1.43s9.72-54.57-33.35-64.62S1371.39,956.91,1341.23,1046.46Z"/><path class="cls-3" d="M1430.69,1317h0a.84.84,0,0,1-.83-.84c.74-90.48-23.55-158.84-44.07-200.26-22.22-44.88-44.92-68.67-45.15-68.9a.84.84,0,0,1,0-1.18.82.82,0,0,1,1.18,0c.23.23,23.08,24.16,45.42,69.25,20.6,41.59,45,110.24,44.27,201.08A.83.83,0,0,1,1430.69,1317Z"/><path class="cls-3" d="M1286,1274.38a.82.82,0,0,1-.75-1.21c40.22-79.52,81-190.89,81.38-192a.84.84,0,1,1,1.57.57c-.4,1.11-41.19,112.57-81.46,192.19A.82.82,0,0,1,1286,1274.38Z"/><path class="cls-3" d="M1175.85,1217.12l-.24,0a.84.84,0,0,1-.56-1c8.5-28.14,40.54-63.52,95.25-105.15a948.12,948.12,0,0,1,79.77-54.19.84.84,0,0,1,.85,1.44c-1.54.91-154.24,92-174.27,158.38A.83.83,0,0,1,1175.85,1217.12Z"/><path class="cls-3" d="M1143.11,1109.47a.77.77,0,0,1-.41-.11.84.84,0,0,1-.31-1.14c11.11-19.2,28.69-34.23,52.25-44.68,18.81-8.33,41.45-13.78,67.29-16.2a368.84,368.84,0,0,1,82.45,2.09c2.81-3,24.34-25,58.48-38.53a149.59,149.59,0,0,1,65.85-10.48c27.8,1.92,55.82,11.78,83.27,29.32a.84.84,0,1,1-.9,1.41c-27.2-17.38-54.94-27.16-82.44-29.06a147.94,147.94,0,0,0-65.1,10.33c-36.15,14.3-58,38.22-58.23,38.46a.86.86,0,0,1-.76.27,365.37,365.37,0,0,0-82.5-2.14c-25.65,2.4-48.11,7.8-66.74,16.07-23.23,10.3-40.55,25.09-51.47,44A.86.86,0,0,1,1143.11,1109.47Z"/><path class="cls-3" d="M1524.42,1190.13a.83.83,0,0,1-.71-.41c-29.36-49.66-67.82-72.07-94.92-82.12-29.34-10.89-52-10-52.21-10a.85.85,0,0,1-.87-.8.84.84,0,0,1,.8-.87c.23,0,23.22-.88,52.86,10.12,27.35,10.15,66.17,32.76,95.77,82.84a.84.84,0,0,1-.72,1.26Z"/></g><g id="grass"><path class="cls-3" d="M1244.15,785.16a75.32,75.32,0,0,1,33.64-34c2.87-1.45.34-5.77-2.53-4.32a80.09,80.09,0,0,0-29.77,26.1,77.19,77.19,0,0,0-5.66,9.66,2.57,2.57,0,0,0,.9,3.42,2.52,2.52,0,0,0,3.42-.9Z"/><path class="cls-3" d="M1234.61,782.45A108.58,108.58,0,0,0,1239.5,760a2.51,2.51,0,0,0-2.5-2.5,2.57,2.57,0,0,0-2.5,2.5,102.09,102.09,0,0,1-4.71,21.14,2.5,2.5,0,1,0,4.82,1.33Z"/><path class="cls-3" d="M1222.47,776a77.56,77.56,0,0,0-2.12-27c-.8-3.11-5.63-1.79-4.82,1.33a73.55,73.55,0,0,1,1.94,25.64,2.53,2.53,0,0,0,2.5,2.5,2.56,2.56,0,0,0,2.5-2.5Z"/><path class="cls-3" d="M1062.33,907a59,59,0,0,1,21.06-24.68c2.68-1.76.17-6.09-2.52-4.32A63.82,63.82,0,0,0,1058,904.47a2.57,2.57,0,0,0,.9,3.42,2.52,2.52,0,0,0,3.42-.9Z"/><path class="cls-3" d="M1052.82,902.45a172.74,172.74,0,0,0-.78-29.65,2.57,2.57,0,0,0-2.5-2.5,2.51,2.51,0,0,0-2.5,2.5,172.74,172.74,0,0,1,.78,29.65c-.19,3.21,4.81,3.2,5,0Z"/><path class="cls-3" d="M1039.69,901.57l-15.84-18a2.5,2.5,0,0,0-3.53,3.53l15.83,18a2.52,2.52,0,0,0,3.54,0,2.55,2.55,0,0,0,0-3.53Z"/><path class="cls-3" d="M1028.19,909.06a62,62,0,0,0-17.31-8,2.5,2.5,0,0,0-1.32,4.82,56.8,56.8,0,0,1,16.11,7.53,2.5,2.5,0,1,0,2.52-4.32Z"/><path class="cls-3" d="M1042.45,914.39c3.22,0,3.22-5,0-5s-3.22,5,0,5Z"/><path class="cls-3" d="M672,820.67a51,51,0,0,1-2.82-34.77c.85-3.11-4-4.44-4.82-1.33a56.49,56.49,0,0,0,3.32,38.62,2.51,2.51,0,0,0,3.42.9,2.55,2.55,0,0,0,.9-3.42Z"/><path class="cls-3" d="M651.45,813.31l-8-23.88c-1-3-5.84-1.74-4.82,1.33q4,11.94,8,23.87c1,3,5.85,1.74,4.83-1.32Z"/><path class="cls-3" d="M681.42,808.07q4.13-15.09,8.24-30.19c.85-3.11-4-4.43-4.82-1.33q-4.12,15.11-8.24,30.19c-.84,3.11,4,4.44,4.82,1.33Z"/><path class="cls-3" d="M638.38,811.72a70.87,70.87,0,0,0-12.84-8.66,2.5,2.5,0,1,0-2.52,4.32,67.69,67.69,0,0,1,6.3,3.73c1,.66,2,1.34,2.9,2l.71.53c-.28-.21,0,0,.11.09l.35.28,1.46,1.19a2.54,2.54,0,0,0,3.53,0,2.51,2.51,0,0,0,0-3.53Z"/><path class="cls-3" d="M471.57,947.57a80.85,80.85,0,0,1,10.57-27.65c1.69-2.75-2.64-5.26-4.32-2.52a84.8,84.8,0,0,0-11.07,28.84,2.57,2.57,0,0,0,1.75,3.07,2.51,2.51,0,0,0,3.07-1.74Z"/><path class="cls-3" d="M456.33,951.61a230.34,230.34,0,0,0-19.27-13.51,2.5,2.5,0,1,0-2.52,4.32,216.68,216.68,0,0,1,18.26,12.73,2.58,2.58,0,0,0,3.53,0,2.51,2.51,0,0,0,0-3.54Z"/><path class="cls-3" d="M437.87,956.47a69,69,0,0,0-16.66-3.26,2.5,2.5,0,0,0-2.5,2.5,2.57,2.57,0,0,0,2.5,2.5,63.86,63.86,0,0,1,15.34,3.08,2.51,2.51,0,0,0,3.07-1.74,2.56,2.56,0,0,0-1.75-3.08Z"/><path class="cls-3" d="M461,940.35a55.52,55.52,0,0,1-2.56-20.16,2.5,2.5,0,0,0-5,0,59.71,59.71,0,0,0,2.74,21.49,2.56,2.56,0,0,0,3.08,1.75,2.53,2.53,0,0,0,1.74-3.08Z"/><path class="cls-3" d="M1450.87,822.68a57.72,57.72,0,0,1,14.66-16,1.93,1.93,0,0,0,.68-2.57,1.9,1.9,0,0,0-2.57-.67,62.49,62.49,0,0,0-16,17.39c-1.27,2.07,2,4,3.24,1.9Z"/><path class="cls-3" d="M1466.9,819.63l12.74-6.63a1.9,1.9,0,0,0,.68-2.56,1.93,1.93,0,0,0-2.57-.68L1465,816.39a1.88,1.88,0,1,0,1.9,3.24Z"/><path class="cls-3" d="M1482.93,824.62a27.72,27.72,0,0,0,11-11.58,1.91,1.91,0,0,0-.67-2.57,1.89,1.89,0,0,0-2.56.67,26.35,26.35,0,0,1-1.89,3.2c-.18.26-.36.52-.55.77s0-.05-.08.11l-.27.33c-.4.5-.81,1-1.25,1.43a25.85,25.85,0,0,1-2.67,2.46c-.44.36.29-.21-.16.13l-.35.26-.78.55c-.52.35-1.06.68-1.61,1a1.89,1.89,0,0,0-.68,2.56,1.92,1.92,0,0,0,2.57.68Z"/><path class="cls-3" d="M1503.11,828.53a19.49,19.49,0,0,1,2.71-10.43,1.88,1.88,0,1,0-3.24-1.89,23.46,23.46,0,0,0-3.22,12.32,1.88,1.88,0,0,0,3.75,0Z"/><path class="cls-3" d="M1512,838.65l16.67-12.35a1.94,1.94,0,0,0,.67-2.57,1.88,1.88,0,0,0-2.56-.67l-16.67,12.36a1.92,1.92,0,0,0-.68,2.56,1.89,1.89,0,0,0,2.57.67Z"/></g><g id="man"><polygon class="cls-6" points="926.6 477.33 878.43 477.33 884.16 429.43 920.88 429.43 926.6 477.33"/><path d="M934.05,366.34c-8.09-15.39-30.57-15.06-31.82-15s-23.73-.36-31.82,15c-8.32,15.84,3.5,38.54,3.5,38.54h56.64S942.37,382.18,934.05,366.34Z"/><path class="cls-7" d="M928.76,397.4V385.59a15.05,15.05,0,0,0-2.59-8.46c-5.15,2.11-13.82,3.49-23.65,3.49s-18.24-1.34-23.42-3.4a15,15,0,0,0-2.53,8.37v11.87c-.21,0-.42-.06-.63-.06a7.48,7.48,0,0,0,0,15c.21,0,.42-.05.63-.07v.87a26.09,26.09,0,0,0,26.09,26.09h0a26.09,26.09,0,0,0,26.1-26.09v-.8a7.48,7.48,0,0,0,0-15Z"/><path class="cls-8" d="M1054.27,546.09,1031,500.87a88,88,0,0,0-79.92-47.7,58.69,58.69,0,0,0-9.35-.76H858a58.74,58.74,0,0,0-9.26.74,88,88,0,0,0-78.79,47.72l-23.28,45.22,58.47,30.1,5.14,124.34a7,7,0,0,0,7,6.67H982.49a7,7,0,0,0,6.94-6.67l5.12-123.69Z"/><path d="M805.29,577.27a1,1,0,0,1-1-1V526.51a1,1,0,0,1,2,0v49.76A1,1,0,0,1,805.29,577.27Z"/><path d="M995.34,577.4a1,1,0,0,1-1-1v-52a1,1,0,0,1,2,0v52A1,1,0,0,1,995.34,577.4Z"/><polygon points="982.49 707.2 817.22 707.2 831.06 805.41 976.52 805.41 982.49 707.2"/><path class="cls-9" d="M775.36,883.86l-23.24,12.81c-8.13,2.85-14.58,8.79-19.13,16.1-1.75,2.8-4.56,4.72-9.08,3.34-11.3-3.44-16.55-9.38-27.8-6s-24.75,4.58-32.91-1.57c0,0-6.88,5.23-13.65-1.86a2.81,2.81,0,0,1,.85-4.47l106.35-50.36Z"/><path class="cls-10" d="M729.51,845.25l37.61,62.45L1015.46,797c34.89-21,47.33-64.38,27.77-96.86h0c-10.69-17.74-34.79-22.82-53.85-11.35Z"/><path class="cls-11" d="M744.2,653.26h0a23.82,23.82,0,0,1-12.28-30.46l27.53-70.13,45.84,23.6-29.48,65A23.82,23.82,0,0,1,744.2,653.26Z"/><path class="cls-12" d="M751.31,615.72l109.56,42.46-22.43,22.76s-93.67,1.57-108-38.09a23,23,0,0,1,3.3-22.33A15.23,15.23,0,0,1,751.31,615.72Z"/><path class="cls-13" d="M1059.78,651h0a23.82,23.82,0,0,0,12.28-30.46l-27.53-70.13L998.7,574l29.47,65A23.82,23.82,0,0,0,1059.78,651Z"/><path class="cls-14" d="M1054.51,615,939.38,638.41l18.28,26.21s92.07,17.3,112.85-19.38a23,23,0,0,0,.5-22.57A15.23,15.23,0,0,0,1054.51,615Z"/><path class="cls-15" d="M986.91,720.3H814a8.58,8.58,0,0,1-8.55-8L794.39,561.88a8.59,8.59,0,0,1,8.56-9.21h197.5A8.58,8.58,0,0,1,1009,562L995.45,712.48A8.57,8.57,0,0,1,986.91,720.3Z"/><circle class="cls-16" cx="901.7" cy="637.42" r="22.74" transform="translate(-186.62 824.29) rotate(-45)"/><path class="cls-10" d="M894.14,1026.25h-72.9L788,756.39c0-40.74,30.74-73.77,68.66-73.77h0c20.71,0,37.49,18,37.49,40.28Z"/><path class="cls-17" d="M839,1026.25h41.6s-5,26.72,0,39.47c4.09,10.46,19.35,52.17,24.73,66.92a6.31,6.31,0,0,1-3.27,7.88c-11.48,5.37-39,14.87-50.47-10.71-11.63-25.92-9.5-59.46-8.11-72.28a24.43,24.43,0,0,0-1.24-10.76Z"/><path d="M894.14,1144.69a1,1,0,0,1-.93-.64l-5.83-15a1,1,0,0,1,1.87-.72l5.83,15a1,1,0,0,1-.57,1.3A1.19,1.19,0,0,1,894.14,1144.69Z"/><path class="cls-18" d="M894.14,852.84a1,1,0,0,1-1-1V751.38a1,1,0,0,1,2,0V851.84A1,1,0,0,1,894.14,852.84Z"/><path class="cls-18" d="M805.28,893.82a1,1,0,0,1-1-.88l-11.14-86.48a1,1,0,0,1,2-.26l11.14,86.49a1,1,0,0,1-.87,1.12Z"/></g></svg>