<svg id="Layer_1" data-name="Layer 1" xmlns="http://www.w3.org/2000/svg" xmlns:xlink="http://www.w3.org/1999/xlink" viewBox="0 0 1691.39 909.8"><defs><style>.cls-1{fill:none;}.cls-2{fill:#d5f7f2;}.cls-3{clip-path:url(#clip-path);}.cls-4{fill:#fff;}.cls-5{fill:#bdefe7;}.cls-6{fill:#b5eae3;}.cls-7{fill:#71e2d2;}.cls-8{fill:#026658;}.cls-9{fill:#1f9987;}.cls-10{fill:#28c6af;}.cls-11{fill:#151618;}.cls-12{opacity:0.44;}.cls-13{fill:#4900bc;}.cls-14{fill:url(#linear-gradient);}.cls-15{fill:#faf9fc;}.cls-16{fill:url(#linear-gradient-2);}.cls-17{fill:#fbbcbe;}.cls-18{fill:#0c1540;}.cls-19{fill:url(#linear-gradient-3);}.cls-20{fill:url(#linear-gradient-4);}.cls-21{fill:#da91a7;}.cls-22{fill:url(#linear-gradient-5);}.cls-23{fill:url(#linear-gradient-6);}</style><clipPath id="clip-path"><path class="cls-1" d="M1481.66,871s170.76-140.78-8.13-276.4,12.82-213.91-105.29-338.43-245.27,44.75-324.7-72.11C941.34,33.89,678.44-64,555.06,127.74c-102.2,158.63-327,26.67-327,323,0,210.59-267.36,156.11-112.39,420.27Z"/></clipPath><linearGradient id="linear-gradient" x1="4543.67" y1="1449.02" x2="4540.98" y2="1453.5" gradientTransform="translate(6085.02 2227) rotate(180)" gradientUnits="userSpaceOnUse"><stop offset="0" stop-color="#dbebff"/><stop offset="0.53" stop-color="#ddecff"/><stop offset="0.74" stop-color="#e4f0ff"/><stop offset="0.89" stop-color="#f0f7ff"/><stop offset="1" stop-color="#fff"/></linearGradient><linearGradient id="linear-gradient-2" x1="4586.86" y1="1457.13" x2="4518.46" y2="1457.13" gradientTransform="translate(6085.02 2227) rotate(180)" gradientUnits="userSpaceOnUse"><stop offset="0" stop-color="#ffd000"/><stop offset="1" stop-color="#ff7300"/></linearGradient><linearGradient id="linear-gradient-3" x1="5267.85" y1="1426.45" x2="5215.29" y2="1528.1" xlink:href="#linear-gradient-2"/><linearGradient id="linear-gradient-4" x1="5148.61" y1="1498.97" x2="5235.36" y2="1498.97" xlink:href="#linear-gradient-2"/><linearGradient id="linear-gradient-5" x1="4991.25" y1="1621.53" x2="5237.68" y2="1621.53" xlink:href="#linear-gradient-2"/><linearGradient id="linear-gradient-6" x1="5010.85" y1="1622.77" x2="5116.11" y2="1591.52" gradientTransform="translate(6085.02 2227) rotate(180)" gradientUnits="userSpaceOnUse"><stop offset="0" stop-color="#ffc200"/><stop offset="1" stop-color="#c96019"/></linearGradient></defs><g id="Layer_2" data-name="Layer 2"><path id="SVGID-2" class="cls-2" d="M1481.66,871s170.76-140.78-8.13-276.4,12.82-213.91-105.29-338.43-245.27,44.75-324.7-72.11C941.34,33.89,678.44-64,555.06,127.74c-102.2,158.63-327,26.67-327,323,0,210.59-267.36,156.11-112.39,420.27Z"/><g class="cls-3"><rect class="cls-4" x="979.1" y="398.08" width="1.95" height="253.28"/><rect class="cls-4" x="1010.12" y="398.08" width="1.95" height="253.28"/><rect class="cls-4" x="1041.14" y="398.08" width="1.95" height="253.28"/><rect class="cls-4" x="1072.04" y="398.08" width="1.95" height="253.28"/><rect class="cls-4" x="1103.05" y="398.08" width="1.95" height="253.28"/><rect class="cls-4" x="1134.07" y="398.08" width="1.95" height="253.28"/><rect class="cls-4" x="1164.97" y="398.08" width="1.95" height="253.28"/><rect class="cls-4" x="1195.99" y="398.08" width="1.95" height="253.28"/><rect class="cls-4" x="1227" y="398.08" width="1.95" height="253.28"/><rect class="cls-4" x="1257.91" y="398.08" width="1.95" height="253.28"/><rect class="cls-4" x="1288.92" y="398.08" width="1.95" height="253.28"/><rect class="cls-4" x="1320.05" y="398.08" width="1.95" height="253.28"/><rect class="cls-4" x="1351.07" y="398.08" width="1.95" height="253.28"/><rect class="cls-4" x="1381.97" y="398.08" width="1.95" height="253.28"/><rect class="cls-4" x="1412.99" y="398.08" width="1.95" height="253.28"/><rect class="cls-4" x="1444" y="398.08" width="1.95" height="253.28"/><rect class="cls-4" x="1474.91" y="398.08" width="1.95" height="253.28"/><rect class="cls-4" x="980.13" y="617.82" width="495.69" height="1.95"/><rect class="cls-4" x="980.13" y="586.92" width="495.69" height="1.95"/><rect class="cls-4" x="980.13" y="555.9" width="495.69" height="1.95"/><rect class="cls-4" x="980.13" y="524.89" width="495.69" height="1.95"/><rect class="cls-4" x="980.13" y="493.99" width="495.69" height="1.95"/><rect class="cls-4" x="980.13" y="462.97" width="495.69" height="1.95"/><rect class="cls-4" x="980.13" y="431.95" width="495.69" height="1.95"/><rect class="cls-5" x="738.41" y="-19.21" width="19.11" height="890.08"/><rect class="cls-5" x="554.38" y="-19.21" width="19.11" height="890.08"/><rect class="cls-5" x="370.45" y="-19.21" width="19.11" height="890.08"/><rect class="cls-5" x="219.38" y="416.96" width="534.49" height="17.97"/><rect class="cls-5" x="219.38" y="42.59" width="534.49" height="140.55"/><rect class="cls-5" x="976.36" y="632.36" width="587.36" height="238.52"/><rect class="cls-6" x="1163.26" y="627.89" width="8.13" height="243.09"/><rect class="cls-6" x="1372.01" y="627.89" width="8.13" height="243.09"/><rect class="cls-6" x="964.34" y="616.68" width="600.98" height="15.79"/><rect class="cls-5" x="976.36" y="112.98" width="587.36" height="309.93"/><rect class="cls-6" x="1163.26" y="179.82" width="8.13" height="243.09"/><rect class="cls-6" x="1372.01" y="179.82" width="8.13" height="243.09"/><rect class="cls-5" x="923.02" y="58.96" width="2.52" height="149.47"/><path class="cls-5" d="M911.23,289.58h26.1v-68.1a13.12,13.12,0,0,0-13.05-13h0a13.12,13.12,0,0,0-13,13h0v68.1Z"/><rect class="cls-5" x="819.79" y="24.74" width="2.52" height="226.38"/><path class="cls-5" d="M808,332.15h26.09v-68.1a13.11,13.11,0,0,0-13-13h0a13.12,13.12,0,0,0-13,13h0v68.1Z"/><rect class="cls-5" x="868.89" y="-2.39" width="2.52" height="149.47"/><path class="cls-5" d="M857.1,228.23h26.09v-68.1a13.11,13.11,0,0,0-13-13h0a13.12,13.12,0,0,0-13,13h0v68.1Z"/><rect class="cls-7" x="233.91" y="702.86" width="595.83" height="130.93"/><path class="cls-7" d="M891.78,651.47V822.35c0,6.29-6.07,11.44-13.51,11.44H748.71c-7.43,0-13.5-5.15-13.5-11.44V622.29H862.48a29.18,29.18,0,0,1,29.3,29.18Z"/><path class="cls-6" d="M477.47,479.34H694.58l28.61,249.38H508.25c-17.05,0-30.78-11.67-30.78-26L450,514.24C447.48,496.62,460,480.25,477.47,479.34Z"/><path class="cls-5" d="M530.46,479.34H721c17.05,0,30.78,11.67,30.78,26l28.62,197.2c0,14.3-13.85,26-30.79,26H561.13c-17,0-30.79-11.68-30.79-26L502.87,514C500.58,496.62,513.06,480.25,530.46,479.34Z"/><path class="cls-4" d="M545.11,689.58c111.13-15.68,271.13,0,271.13,0,8.36,2.18,10.87,4.47,13.62,10v84.58a3,3,0,0,1-2.86,3.43H545.11c-7.44,0-13.62-4.46-13.62-9.95V699.54C531.6,695.88,537.9,691.64,545.11,689.58Z"/><path class="cls-5" d="M550.94,700.46H829.75v83.66a3,3,0,0,1-2.87,3.43H545.11c-7.44,0-13.62-4.46-13.62-9.95V719.91a19.43,19.43,0,0,1,19.45-19.45Z"/><polygon class="cls-7" points="870.38 870.99 857.33 870.99 834.55 833.9 854.81 833.9 870.38 870.99"/><polygon class="cls-7" points="747.34 870.99 734.29 870.99 711.63 833.9 731.89 833.9 747.34 870.99"/><path class="cls-6" d="M180.24,479.34H372.4A27.82,27.82,0,0,1,400,503.94L422.3,697.48a27.8,27.8,0,0,1-24.49,30.79,31.3,31.3,0,0,1-3.21.11h-184c-16.37,0-29.88-10.87-30.79-24.61-.12-1-.12-2.06-.23-3.09l-27.12-187C149.79,496.5,162.61,480.14,180.24,479.34Z"/><path class="cls-5" d="M232.88,479.34H423.56c17.05,0,30.79,11.67,30.79,26l28.72,197.2c0,14.3-13.84,26-30.9,26H263.67c-17.05,0-30.79-11.68-30.79-26L205.42,513.9C202.9,496.62,215.49,480.25,232.88,479.34Z"/><path class="cls-4" d="M244.21,552.81c15.11,7.1,18.32-.23,69.71,2.06,30.78,1.38,47.84-3.89,56.42-8.24a5.18,5.18,0,0,1,7.1,2,5.87,5.87,0,0,1,.68,2.4c0,8.13.35,21.4,1.95,40.29,6.41,76.8,32.73,77.14,18.2,84s-179,20.48-159.43,3.89-3.09-78.17-8.47-102.44C225.79,556.82,231.17,546.63,244.21,552.81Z"/><path class="cls-2" d="M332.57,571c53.45,4.92,107.13,1.26,128.3-.69a8.66,8.66,0,0,1,9.39,7.44v.46c.91,31.59,13.5,76.91,19.11,96a8.62,8.62,0,0,1-6.18,10.53,2.64,2.64,0,0,1-.92.11c-63.75,10.76-112.85,9.27-131.62,8.13a8.07,8.07,0,0,1-7.89-8.24c.34-33.2-12.82-80.92-19.46-103.12C321.24,576.16,326.28,570.32,332.57,571Z"/><path class="cls-4" d="M247.53,689.58c111.14-15.68,271.14,0,271.14,0,8.35,2.18,10.87,4.47,13.62,10V777.6s-6.87,9.95-10.76,9.95h-274c-7.44,0-13.62-4.46-13.62-9.95V699.54C233.91,695.88,240.21,691.64,247.53,689.58Z"/><path class="cls-5" d="M532.29,719.8v56.76a10.9,10.9,0,0,1-10.53,11H247.53c-7.44,0-13.62-4.46-13.62-9.95V700.46H512.72a19.44,19.44,0,0,1,19.57,19.34Z"/><polygon class="cls-7" points="296.75 833.9 273.97 870.99 260.81 870.99 276.49 833.9 296.75 833.9"/><polygon class="cls-7" points="192.48 833.9 169.82 870.99 156.77 870.99 172.22 833.9 192.48 833.9"/><path class="cls-7" d="M166.62,622.29H269.05a27,27,0,0,1,27,27h0V822.35c0,6.29-6.06,11.44-13.5,11.44H152.88c-7.44,0-13.5-5.15-13.5-11.44V649.3a27.33,27.33,0,0,1,27.24-27Z"/><path class="cls-4" d="M261.27,622.29h7.55a27.28,27.28,0,0,1,27.36,27.35V794.88H829.86V651.47a29.16,29.16,0,0,1,29.19-29.18h3.66a29.15,29.15,0,0,1,29.18,29.18V822.35c0,6.29-6.06,11.44-13.5,11.44H253.26A19.19,19.19,0,0,1,234,814.56h0v-165C233.91,634.53,246.28,622.4,261.27,622.29Z"/></g><rect class="cls-8" x="518.9" y="575.25" width="8.47" height="295.74"/><polygon class="cls-8" points="1014.24 870.99 1005.77 870.99 1005.77 720.48 1005.77 575.25 1014.24 575.25 1014.24 870.99"/><rect class="cls-9" x="993.18" y="608.78" width="52.19" height="111.7"/><rect class="cls-10" x="471.86" y="555.1" width="141.92" height="12.82"/><rect class="cls-8" x="502.87" y="568.04" width="141.92" height="7.21"/><polygon class="cls-4" points="1079.36 622.63 1166.69 622.63 1172.3 615.88 1193.24 615.88 1193.24 714.53 1052.81 714.53 1052.81 615.88 1073.76 615.88 1079.36 622.63"/><rect class="cls-7" x="578.98" y="555.1" width="684.19" height="12.82"/><rect class="cls-9" x="644.79" y="568.04" width="587.25" height="7.21"/><rect class="cls-9" x="667.8" y="575.25" width="8.47" height="295.74"/><path class="cls-9" d="M1045.37,608.78v13.85c-3.55,0-8.47-3.32-8.47-9.84V575.25h8.47Z"/><path class="cls-8" d="M993.41,622.63c-3.55,0-8.35-3.32-8.35-9.84V575.25h8.35Z"/><path class="cls-7" d="M1200.68,608.78H1045.37v111.7h155.2V608.78Zm-7.44,104.72H1052.81V615.88h140.32V713.5Z"/><polygon class="cls-8" points="1166.69 622.63 1079.36 622.63 1073.76 615.88 1172.3 615.88 1166.69 622.63"/><polygon class="cls-8" points="1166.69 660.97 1079.36 660.97 1073.76 654.22 1172.3 654.22 1166.69 660.97"/><polygon class="cls-8" points="1166.69 690.61 1079.36 690.61 1073.76 683.86 1172.3 683.86 1166.69 690.61"/><polygon class="cls-9" points="1209.27 870.99 1200.68 870.99 1200.68 720.48 1200.68 575.25 1209.27 575.25 1209.27 870.99"/><polygon class="cls-11" points="706.48 544.23 751.69 544.23 751.69 555.33 673.98 555.33 706.48 544.23"/><rect class="cls-11" x="706.48" y="510.92" width="11.56" height="34.11"/><polygon class="cls-8" points="714.04 544.23 789.46 544.92 789.46 510.93 714.04 510.93 714.04 544.23"/><rect class="cls-11" x="710.83" y="510.92" width="78.63" height="7.21"/><path class="cls-10" d="M588.83,322.54h12.93V511H588.83a1,1,0,0,1-1-1h0V323.57a.91.91,0,0,1,1-1Z"/><path class="cls-7" d="M908,510.92H595.35a1,1,0,0,1-1-1V323.57a1,1,0,0,1,1-1H908a1,1,0,0,1,1,1V509.78A1.05,1.05,0,0,1,908,510.92Z"/><rect class="cls-8" x="599.47" y="327.57" width="304.55" height="169.39"/><rect class="cls-10" x="742.53" y="340.85" width="146.5" height="50.36"/><path class="cls-2" d="M746,344.06H885.6V388H746Zm138.25,1.37h-137v41.32h137V345.43Z"/><rect class="cls-2" x="815.12" y="293.66" width="1.26" height="144.78" transform="translate(225.34 1037.51) rotate(-72.84)"/><rect class="cls-2" x="743.29" y="365.34" width="144.78" height="1.26" transform="translate(-71.69 257.11) rotate(-17.17)"/><rect class="cls-10" x="689.77" y="403.11" width="68.67" height="83.89"/><path class="cls-2" d="M692.75,406.09h62.83v77.6H692.75Zm61.57,1.37h-60.2v75h60.2Z"/><polygon class="cls-2" points="754.44 483.46 755.47 482.65 693.89 406.43 692.86 407.12 754.44 483.46"/><polygon class="cls-2" points="693.89 483.46 755.47 407.12 754.44 406.43 692.86 482.65 693.89 483.46"/><rect class="cls-10" x="611.95" y="403.11" width="68.67" height="83.89"/><path class="cls-2" d="M614.92,406.09h62.83v77.6H614.92Zm61.58,1.37H616.29v75H676.5Z"/><polygon class="cls-2" points="676.61 483.46 677.64 482.65 616.07 406.43 615.04 407.12 676.61 483.46"/><polygon class="cls-2" points="616.07 483.46 677.64 407.12 676.61 406.43 615.04 482.65 616.07 483.46"/><rect class="cls-10" x="677.87" y="344.06" width="52.76" height="5.15"/><rect class="cls-10" x="677.87" y="354.13" width="52.76" height="5.15"/><rect class="cls-10" x="677.87" y="364.2" width="52.76" height="5.15"/><rect class="cls-10" x="677.87" y="374.27" width="52.76" height="5.15"/><rect class="cls-10" x="677.87" y="384.23" width="52.76" height="5.15"/><rect class="cls-10" x="772.18" y="407.92" width="118.69" height="5.15"/><rect class="cls-10" x="772.18" y="418.1" width="118.69" height="5.15"/><rect class="cls-10" x="772.18" y="428.06" width="118.69" height="5.15"/><rect class="cls-10" x="772.18" y="438.02" width="118.69" height="5.15"/><rect class="cls-10" x="772.18" y="448.21" width="118.69" height="5.15"/><rect class="cls-10" x="772.18" y="464.34" width="118.69" height="5.15"/><rect class="cls-10" x="772.18" y="474.3" width="118.69" height="5.15"/><rect class="cls-10" x="611.95" y="344.06" width="52.76" height="5.15"/><rect class="cls-10" x="611.95" y="354.13" width="52.76" height="5.15"/><rect class="cls-10" x="611.95" y="364.2" width="52.76" height="5.15"/><rect class="cls-10" x="611.95" y="374.27" width="52.76" height="5.15"/><rect class="cls-10" x="611.95" y="384.23" width="52.76" height="5.15"/><path class="cls-8" d="M789.46,544.23s4.12,5.95,42.23,5.95v5.15h-80v-5.15s-33.08-.69-37.65-5.95Z"/><path class="cls-8" d="M1495.28,584.4s50.58,16.94,43.72,75.2,3.09,129.33,3.09,129.33h-28.84s-51.39-69.25-13.51-121.09S1495.28,584.4,1495.28,584.4Z"/><path class="cls-7" d="M1499.17,588.06c9.27,7.56,36,35.26,7.21,80.92C1472.16,723.35,1528,788.93,1528,788.93l13.85-.92a8,8,0,0,1,.11,1.14h-28.84s-51.39-69.24-13.5-121.08C1530,626.41,1508.78,597.68,1499.17,588.06Z"/><g class="cls-12"><path class="cls-13" d="M1497.34,586.12a24.71,24.71,0,0,0-2.06-1.72,67.77,67.77,0,0,1,10.76,5.27A91.94,91.94,0,0,0,1497.34,586.12Z"/></g><path class="cls-9" d="M1550.67,724.6c-2.75-51.84-.68-58.25,19.46-75.19s48.41-45.09,48.41-45.09c-19.34,38.22-19,55.62-22.55,83.66-2.86,21.75-35.59,65.35-50.13,83.89C1549.07,764.2,1551.93,750.24,1550.67,724.6Z"/><path class="cls-14" d="M1539,780.23s2.74-3.21,6.86-8.59C1542.55,779.2,1539,780.23,1539,780.23Z"/><path class="cls-8" d="M1560.4,700.46c10,42.91-11.33,71.87-11.33,71.87H1528c0-14.76-1-29-7.9-43.38a20.24,20.24,0,0,0-1.26-2.17c3-1.37,6.3-2.86,10-4.24C1567.5,707.78,1550.33,657.54,1560.4,700.46Z"/><path class="cls-9" d="M1505.81,711.33c21.4,10.76,15.1,57.22,15.1,57.22l-20.14,7.33s3.55-21.18-10-37.54-22.66-10.07-22.66-10.07S1484.52,700.46,1505.81,711.33Z"/><path class="cls-9" d="M1608.13,689.47c35.93,0,55.85,21.63,55.85,21.63s-14-7.1-39-6.18-23.23,22.2-43.15,41.89-36.74,22.66-36.74,22.66,26.67-38.46,46-64.67C1594.74,700.34,1591.42,689.47,1608.13,689.47Z"/><path class="cls-15" d="M1671.07,718.42c.12.12.12.35.12.69C1671.42,719.11,1671.3,718.77,1671.07,718.42Z"/><path class="cls-7" d="M1579.17,712.7c6.64-8.93-.23-31.13,42.46-26,39,4.69,48.19,27.81,49.44,31.82-1-2.52-7.21-13-44.86-21.52-43.15-9.73-20.37,12.59-39.83,26.78s-35.48,40.63-35.48,40.63-11,18.54-8.47,3.09C1545,751.84,1572.42,721.63,1579.17,712.7Z"/><path class="cls-7" d="M1446.52,731.93c19.57-39.83,43.15-37.31,58.94-28.61,22.32,12.47,18.77,64.09,18.77,64.09l-3.2,1s-.46-10-2.18-27.35-10.07-41.66-37.42-7.67-65.92,40.17-65.92,40.17S1427.06,771.87,1446.52,731.93Z"/><path class="cls-7" d="M1498.37,682.26c6.18-4.47,12.47-3.66,17.17-1.72a20.45,20.45,0,0,0,18.54-1.72c20.48-12.47,22.2,4.58,22.2,4.58l-.46,4.58v.11c-1.49,8.59-6.29,26.44-26.89,34.34-3.67,1.37-36.06,15.34-36.06,15.34C1497,720.37,1485.78,691.53,1498.37,682.26Z"/><path class="cls-10" d="M1552.39,871h-34.34a22.83,22.83,0,0,1-22.77-22.78v-84h80.11v84A23,23,0,0,1,1552.39,871Z"/><rect class="cls-16" x="1487.38" y="764.09" width="95.68" height="11.56"/><rect class="cls-5" x="58.8" y="277.67" width="4.01" height="79.89"/><rect class="cls-5" x="96.23" y="266" width="6.29" height="604.99"/><polygon class="cls-5" points="129.31 186.69 180.12 282.6 18.75 282.6 69.56 186.69 129.31 186.69"/><path class="cls-5" d="M60.75,350.24a7.21,7.21,0,1,1-7.21,7.21h0A7.4,7.4,0,0,1,60.75,350.24Z"/><path class="cls-9" d="M734.75,555.1a26.65,26.65,0,0,1,51.73,0Z"/><path class="cls-17" d="M747.91,540.11c14.08,0,20.15,13,31.94,7.78s17.28-4.92,16.7-14.76-8.46-8.93-24.49-8.93C756.38,524.32,726.85,540.11,747.91,540.11Z"/><path class="cls-17" d="M899.45,849.58c28.84,0,9.38-34.9,3-53.21L929.89,790c7.44,18.31,1.49,36.62,16.37,60.88,10.53,17.29-1.83,20-1.83,20H875.18C875.18,871,875.18,849.58,899.45,849.58Z"/><path class="cls-18" d="M899.45,849.58c8.24,0,12.59-2.86,14.3-7.32,5.38-1,5.15,2.17,8.82,4.92,10.87,8.13,22.08,1,23.69,3.66,10.53,17.29-1.83,20-1.83,20H875.3C875.18,870.87,875.18,849.58,899.45,849.58Z"/><path class="cls-17" d="M763.25,847c23.23-7.32,39.49-42.69,47.61-61.69l27.13,11c-6.18,8.93-21.41,23.46-24.5,54.59-2.17,22.09-8.12,20-8.12,20H730.29S740,854.16,763.25,847Z"/><path class="cls-18" d="M763.25,847c7.1-2.17,13.28-6.86,19.11-13.05,1.72-1.94,3.55,6.19,5.5,8.82,4,5.26,20.94,7.55,26,3.89-.23,1.49-.35,2.86-.46,4.23-2.18,22.09-8.13,20-8.13,20H730.17C730.29,870.87,740,854.16,763.25,847Z"/><polygon class="cls-6" points="995.36 658.34 1005.08 658.34 972.58 870.99 962.97 870.99 995.36 658.34"/><polygon class="cls-6" points="882.05 658.34 891.66 658.34 859.27 870.99 849.66 870.99 882.05 658.34"/><path class="cls-19" d="M873.24,622.63S811.66,781,803.42,798.31c0,0,11.9,13.62,28.16,14,0,0,90.41-144.55,98.65-160.91S873.24,622.63,873.24,622.63Z"/><path class="cls-20" d="M849.66,645.75S900.59,794,906.31,812.16c0,0,18,1.49,30.1-9.27,0,0-18.42-130.25-23.57-147.76S849.66,645.75,849.66,645.75Z"/><path class="cls-17" d="M965.26,377.82s9.72,1.26,10.87,8.35-3,13.85-3,13.85,20.6,5.5,39.14-1.72c0,0-9.38-18.42-9.49-38S965.26,377.82,965.26,377.82Z"/><path class="cls-21" d="M986,390.75c-.11-9.27-7.55-16-16.14-17.28,10-9.16,33-28.5,33.08-13.05.11,19.57,9.5,38,9.5,38a61.08,61.08,0,0,1-26,3.43C986.2,398.19,986,394.41,986,390.75Z"/><path class="cls-17" d="M942.37,319.33s-2.06,12.94-1,23.7-3,24.72,7.32,36.73,33.76-1.37,39.14-15.9.69-26-6.86-32.74C973.27,324.6,942.37,319.33,942.37,319.33Z"/><path class="cls-21" d="M959.19,365.34c-.23-5.26-6.3-43.95-6.3-43.95,9.73,2.06,23.35,5.61,27.93,9.73,7.55,6.64,12.36,18.09,6.87,32.74-5.15,13.84-26.44,26.55-37.43,17.74A18.75,18.75,0,0,0,959.19,365.34Z"/><path class="cls-8" d="M953.7,328.15s4.12,4,5.95,13.16,3.43,14.3,6.64,8.24,4-16,12-10.07c5.27,3.89,5.27,11.67,3.55,15.79s3.66,13.51,14.77,10S1014.93,332,1014.93,332,964.68,316.36,953.7,328.15Z"/><path class="cls-11" d="M948.77,290.84S934,294.5,932.64,307c-1.26,11.1,4.69,22,24.49,21.18s21.06,11.44,31.59,14.76,20.94.23,25.86-10.07c5.27-10.64,3.55-23.69-9.27-34.22S950.15,273,948.77,290.84Z"/><path class="cls-22" d="M1087,565.17c0,24.73,26.44,84.81-25.41,84.35s-210.47,0-210.47,0S840.39,628.24,855,615s103.69-33,114.56-46.58S1087,565.17,1087,565.17Z"/><path class="cls-23" d="M996.73,639.22c92.7,0,66.38-72.56,67.3-75.88,13.5.92,22.89,1.83,22.89,1.83,0,24.73,26.43,84.81-25.41,84.35-37.08-.34-129-.22-178.2-.11C889,648.15,984.14,639.22,996.73,639.22Z"/><path class="cls-10" d="M968.35,398.88c-10.3.45-27.36,14.19-27.36,35.25,0,27.7,5.15,66.38,17.51,86.07s-11.33,43,9.73,51.5,118.11,9.61,121.78-4.58-16.71-110.79-22.44-129.9-16-32.85-23.8-36.17S987.23,397.85,968.35,398.88Z"/><path class="cls-9" d="M1076,542.4c.46-11.9,1.72-24.84-1-36.51-18.42-81.15-38.79-89.73-47-96.83-9.61-8.35-21.28-2.86-34.22-3.32-17.39-.68-23.8-7.09-24.15-7.09,19.69-.92,66.5-.92,74.05,2.29,7.79,3.32,18.09,17.28,23.81,36.16s26.09,115.6,22.43,129.91c-1.71,6.18-21.29,9.49-44.52,10.52C1062.08,573.53,1075.13,562.31,1076,542.4Z"/><path class="cls-4" d="M968.35,398.88c6.29-3.21,11.78-.92,17.51-6.41,10.41-10,26.55-7.78,26.55-7.78l8.13,13.73C1020.42,398.3,990.21,413.53,968.35,398.88Z"/><path class="cls-10" d="M972.35,402.77c-8.35-7.56-30.67,1.94-45.09,20.6s-44.87,88.93-52.42,105c-7.1,14.88,14.53,40.86,38.23,16.94s41.54-61,50-87.44S981.28,410.89,972.35,402.77Z"/><path class="cls-7" d="M983.8,551.78h145.35a7.58,7.58,0,0,0,7.21-5.72l10.3-41.2a7.3,7.3,0,0,0-5.15-9.16,10.41,10.41,0,0,0-1.83-.23H994.33a7.59,7.59,0,0,0-7.21,5.73l-10.3,41.2a7.41,7.41,0,0,0,5,9.15A5.34,5.34,0,0,0,983.8,551.78Z"/><path class="cls-5" d="M987.8,551.78h141.35a6.85,6.85,0,0,0,6.75-5.38l9.27-38a7,7,0,0,0-5.15-8.47,7.44,7.44,0,0,0-1.71-.23H997.19a6.86,6.86,0,0,0-6.76,5.38l-9.27,38a7,7,0,0,0,5.15,8.46A3.15,3.15,0,0,0,987.8,551.78Z"/><rect class="cls-10" x="844.05" y="649.52" width="110.9" height="11.45"/><polygon class="cls-4" points="977.5 658.34 967.89 658.34 1000.28 870.99 1009.89 870.99 977.5 658.34"/><polygon class="cls-4" points="1090.81 658.34 1081.19 658.34 1113.58 870.99 1123.2 870.99 1090.81 658.34"/><rect class="cls-7" x="954.95" y="649.52" width="147.3" height="11.45"/><path class="cls-6" d="M970.52,657.31a4.15,4.15,0,0,0,3.89-3l34.45-134.48a3.93,3.93,0,0,0-3.09-4.69,4,4,0,0,0-4.58,2.75L966.74,652.27a4.24,4.24,0,0,0,2.86,4.92h0C970,657.19,970.18,657.31,970.52,657.31Z"/><path class="cls-4" d="M974.53,657.31a4.15,4.15,0,0,0,3.89-3l34.45-134.48a4,4,0,0,0-3.09-4.69,4,4,0,0,0-4.58,2.75L970.63,652.27a4.25,4.25,0,0,0,2.87,4.92C973.84,657.19,974.18,657.31,974.53,657.31Z"/><path class="cls-6" d="M1083,657.31a4.16,4.16,0,0,0,3.89-3l34.45-134.48a4,4,0,0,0-3.09-4.69,4,4,0,0,0-4.58,2.75l-34.57,134.36a4.25,4.25,0,0,0,2.87,4.92h0C1082.34,657.19,1082.68,657.31,1083,657.31Z"/><path class="cls-4" d="M1086.92,657.31a4.15,4.15,0,0,0,3.89-3l34.45-134.48a3.94,3.94,0,0,0-3.09-4.69,4,4,0,0,0-4.58,2.75l-34.45,134.36a4.23,4.23,0,0,0,2.86,4.92C1086.34,657.19,1086.69,657.31,1086.92,657.31Z"/><path class="cls-10" d="M894.75,555c-24.15,3-62.94,0-111.47-1.49,0,0-5.72-18.77,1.83-31.36,0,0,92.7-5.15,102.66-4.92S919.93,551.78,894.75,555Z"/></g></svg>