<?xml version="1.0" encoding="utf-8"?>
<!-- Generator: Adobe Illustrator 25.2.0, SVG Export Plug-In . SVG Version: 6.00 Build 0)  -->
<svg version="1.1" id="Layer_1" xmlns="http://www.w3.org/2000/svg" xmlns:xlink="http://www.w3.org/1999/xlink" x="0px" y="0px"
	 viewBox="0 0 1500 901.9" style="enable-background:new 0 0 1500 901.9;" xml:space="preserve">
<style type="text/css">
	.st0{fill:#D5F7F2;}
	.st1{clip-path:url(#SVGID_2_);}
	.st2{fill:#FFFFFF;}
	.st3{fill:#BDEFE7;}
	.st4{fill:#B5EAE3;}
	.st5{fill:#71E2D2;}
	.st6{fill:#026658;}
	.st7{fill:#1F9987;}
	.st8{fill:#28C6AF;}
	.st9{fill:#151618;}
	.st10{opacity:0.44;}
	.st11{fill:#4900BC;}
	.st12{fill:url(#SVGID_3_);}
	.st13{fill:#FAF9FC;}
	.st14{fill:url(#SVGID_4_);}
	.st15{fill:#FBBCBE;}
	.st16{fill:#0C1540;}
	.st17{fill:url(#SVGID_5_);}
	.st18{fill:url(#SVGID_6_);}
	.st19{fill:#DA91A7;}
	.st20{fill:url(#SVGID_7_);}
	.st21{fill:url(#SVGID_8_);}
</style>
<g>
	<g id="Layer_2_1_">
		<path id="SVGID-2" class="st0" d="M1331.8,780.1c0,0,149.2-123-7.1-241.5s11.2-186.9-92-295.7C1129.6,134.1,1018.4,282,949,179.9
			C859.7,48.7,630-36.8,522.2,130.7C432.9,269.3,236.5,154,236.5,412.9c0,184-233.6,136.4-98.2,367.2H1331.8z"/>
		<g>
			<g>
				<defs>
					<path id="SVGID_1_" d="M1331.8,780.1c0,0,149.2-123-7.1-241.5s11.2-186.9-92-295.7C1129.6,134.1,1018.4,282,949,179.9
						C859.7,48.7,630-36.8,522.2,130.7C432.9,269.3,236.5,154,236.5,412.9c0,184-233.6,136.4-98.2,367.2H1331.8z"/>
				</defs>
				<clipPath id="SVGID_2_">
					<use xlink:href="#SVGID_1_"  style="overflow:visible;"/>
				</clipPath>
				<g class="st1">
					<rect x="892.7" y="366.9" class="st2" width="1.7" height="221.3"/>
					<rect x="919.8" y="366.9" class="st2" width="1.7" height="221.3"/>
					<rect x="946.9" y="366.9" class="st2" width="1.7" height="221.3"/>
					<rect x="973.9" y="366.9" class="st2" width="1.7" height="221.3"/>
					<rect x="1001" y="366.9" class="st2" width="1.7" height="221.3"/>
					<rect x="1028.1" y="366.9" class="st2" width="1.7" height="221.3"/>
					<rect x="1055.1" y="366.9" class="st2" width="1.7" height="221.3"/>
					<rect x="1082.2" y="366.9" class="st2" width="1.7" height="221.3"/>
					<rect x="1109.3" y="366.9" class="st2" width="1.7" height="221.3"/>
					<rect x="1136.3" y="366.9" class="st2" width="1.7" height="221.3"/>
					<rect x="1163.4" y="366.9" class="st2" width="1.7" height="221.3"/>
					<rect x="1190.6" y="366.9" class="st2" width="1.7" height="221.3"/>
					<rect x="1217.7" y="366.9" class="st2" width="1.7" height="221.3"/>
					<rect x="1244.7" y="366.9" class="st2" width="1.7" height="221.3"/>
					<rect x="1271.8" y="366.9" class="st2" width="1.7" height="221.3"/>
					<rect x="1298.9" y="366.9" class="st2" width="1.7" height="221.3"/>
					<rect x="1325.9" y="366.9" class="st2" width="1.7" height="221.3"/>
					<rect x="893.6" y="558.9" class="st2" width="433.1" height="1.7"/>
					<rect x="893.6" y="531.9" class="st2" width="433.1" height="1.7"/>
					<rect x="893.6" y="504.8" class="st2" width="433.1" height="1.7"/>
					<rect x="893.6" y="477.7" class="st2" width="433.1" height="1.7"/>
					<rect x="893.6" y="450.7" class="st2" width="433.1" height="1.7"/>
					<rect x="893.6" y="423.6" class="st2" width="433.1" height="1.7"/>
					<rect x="893.6" y="396.5" class="st2" width="433.1" height="1.7"/>
					<rect x="682.4" y="2.3" class="st3" width="16.7" height="777.7"/>
					<rect x="521.6" y="2.3" class="st3" width="16.7" height="777.7"/>
					<rect x="360.9" y="2.3" class="st3" width="16.7" height="777.7"/>
					<rect x="228.9" y="383.4" class="st3" width="467" height="15.7"/>
					<rect x="228.9" y="56.3" class="st3" width="467" height="122.8"/>
					<rect x="890.3" y="571.6" class="st3" width="513.2" height="208.4"/>
					<rect x="1053.6" y="567.7" class="st4" width="7.1" height="212.4"/>
					<rect x="1236" y="567.7" class="st4" width="7.1" height="212.4"/>
					<rect x="879.8" y="557.9" class="st4" width="525.1" height="13.8"/>
					<rect x="890.3" y="117.8" class="st3" width="513.2" height="270.8"/>
					<rect x="1053.6" y="176.2" class="st4" width="7.1" height="212.4"/>
					<rect x="1236" y="176.2" class="st4" width="7.1" height="212.4"/>
					<rect x="843.7" y="70.6" class="st3" width="2.2" height="130.6"/>
					<path class="st3" d="M833.4,272.1h22.8v-59.5c0-6.3-5.2-11.4-11.4-11.4l0,0c-6.3,0-11.4,5.2-11.4,11.4l0,0V272.1z"/>
					<rect x="753.5" y="40.7" class="st3" width="2.2" height="197.8"/>
					<path class="st3" d="M743.2,309.3H766v-59.5c0-6.3-5.2-11.4-11.4-11.4l0,0c-6.3,0-11.4,5.2-11.4,11.4l0,0V309.3z"/>
					<rect x="796.4" y="17" class="st3" width="2.2" height="130.6"/>
					<path class="st3" d="M786.1,218.5h22.8V159c0-6.3-5.2-11.4-11.4-11.4l0,0c-6.3,0-11.4,5.2-11.4,11.4l0,0V218.5z"/>
					<rect x="241.6" y="633.2" class="st5" width="520.6" height="114.4"/>
					<path class="st5" d="M816.4,588.3v149.3c0,5.5-5.3,10-11.8,10H691.4c-6.5,0-11.8-4.5-11.8-10V562.8h111.2
						C805,562.8,816.4,574.2,816.4,588.3L816.4,588.3z"/>
					<path class="st4" d="M454.4,437.9c0.6,0,1.2,0,1.8,0h187.9l25,217.9H481.3c-14.9,0-26.9-10.2-26.9-22.7l-24-164.7
						C428.2,453,439.1,438.7,454.4,437.9z"/>
					<path class="st3" d="M500.7,437.9c0.6,0,1.2,0,1.8,0h164.7c14.9,0,26.9,10.2,26.9,22.7l25,172.3c0,12.5-12.1,22.7-26.9,22.7
						H527.5c-14.9,0-26.9-10.2-26.9-22.7l-24-164.7C474.6,453,485.5,438.7,500.7,437.9z"/>
					<path class="st2" d="M513.5,621.6c97.1-13.7,236.9,0,236.9,0c7.3,1.9,9.5,3.9,11.9,8.7v73.9c0.2,1.6-0.9,2.9-2.5,3
						c-0.2,0-0.4,0-0.7,0H513.5c-6.5,0-11.9-3.9-11.9-8.7v-68.2C501.7,627.1,507.2,623.4,513.5,621.6z"/>
					<path class="st3" d="M518.6,631.1h243.6v73.1c0.2,1.6-0.9,2.9-2.5,3c-0.2,0-0.4,0-0.7,0H513.5c-6.5,0-11.9-3.9-11.9-8.7v-50.4
						C501.6,638.7,509.2,631.1,518.6,631.1L518.6,631.1z"/>
					<polygon class="st5" points="797.7,780.1 786.3,780.1 766.4,747.7 784.1,747.7 					"/>
					<polygon class="st5" points="690.2,780.1 678.8,780.1 659,747.7 676.7,747.7 					"/>
					<path class="st4" d="M194.7,437.9c0.6,0,167.9,0,167.9,0c12.3,0,22.7,9.3,24.1,21.5l19.5,169.1c1.6,13.3-8.1,25.4-21.4,26.9
						c-0.9,0.1-1.9,0.1-2.8,0.1H221.2c-14.3,0-26.1-9.5-26.9-21.5c-0.1-0.9-0.1-1.8-0.2-2.7l-23.7-163.4
						C168.1,452.9,179.3,438.6,194.7,437.9z"/>
					<path class="st3" d="M240.7,437.9c0.6,0,1.2,0,1.8,0h164.8c14.9,0,26.9,10.2,26.9,22.7l25.1,172.3c0,12.5-12.1,22.7-27,22.7
						H267.6c-14.9,0-26.9-10.2-26.9-22.7l-24-164.8C214.5,453,225.5,438.7,240.7,437.9z"/>
					<path class="st2" d="M250.6,502.1c13.2,6.2,16-0.2,60.9,1.8c26.9,1.2,41.8-3.4,49.3-7.2c2.1-1.2,4.9-0.6,6.2,1.7
						c0.3,0.7,0.6,1.3,0.6,2.1c0,7.1,0.3,18.7,1.7,35.2c5.6,67.1,28.6,67.4,15.9,73.4s-156.4,17.9-139.3,3.4
						c17-14.6-2.7-68.3-7.4-89.5C234.5,505.6,239.2,496.7,250.6,502.1z"/>
					<path class="st0" d="M327.8,518c46.7,4.3,93.6,1.1,112.1-0.6c4-0.4,7.7,2.5,8.2,6.5c0,0.1,0,0.3,0,0.4
						c0.8,27.6,11.8,67.2,16.7,83.9c1,4-1.3,8.2-5.4,9.2c-0.2,0.1-0.6,0.1-0.8,0.1c-55.7,9.4-98.6,8.1-115,7.1
						c-3.9-0.1-6.9-3.2-6.9-7.2c0.3-29-11.2-70.7-17-90.1C317.9,522.5,322.3,517.4,327.8,518z"/>
					<path class="st2" d="M253.5,621.6c97.1-13.7,236.9,0,236.9,0c7.3,1.9,9.5,3.9,11.9,8.7v68.2c0,0-6,8.7-9.4,8.7H253.5
						c-6.5,0-11.9-3.9-11.9-8.7v-68.2C241.6,627.1,247.1,623.4,253.5,621.6z"/>
					<path class="st3" d="M502.3,648v49.6c0,5.2-4,9.4-9.2,9.6H253.5c-6.5,0-11.9-3.9-11.9-8.7v-67.4h243.6
						C494.6,631.1,502.3,638.6,502.3,648L502.3,648z"/>
					<polygon class="st5" points="296.5,747.7 276.6,780.1 265.1,780.1 278.8,747.7 					"/>
					<polygon class="st5" points="205.4,747.7 185.6,780.1 174.2,780.1 187.7,747.7 					"/>
					<path class="st5" d="M182.8,562.8h89.5c13,0,23.6,10.5,23.6,23.6l0,0v151.2c0,5.5-5.3,10-11.8,10H170.8
						c-6.5,0-11.8-4.5-11.8-10V586.4C159.2,573.4,169.7,562.8,182.8,562.8L182.8,562.8z"/>
					<path class="st2" d="M265.5,562.8h6.6c13.2,0,23.9,10.6,23.9,23.9v126.9h466.3V588.3c0-14.1,11.4-25.5,25.5-25.5h3.2
						c14.1,0,25.5,11.4,25.5,25.5v149.3c0,5.5-5.3,10-11.8,10H258.5c-9.3,0-16.8-7.5-16.8-16.8l0,0V586.6
						C241.6,573.5,252.4,562.9,265.5,562.8z"/>
				</g>
			</g>
		</g>
		<rect x="490.6" y="521.7" class="st6" width="7.4" height="258.4"/>
		<polygon class="st6" points="923.4,780.1 916,780.1 916,648.6 916,521.7 923.4,521.7 		"/>
		<rect x="905" y="551" class="st7" width="45.6" height="97.6"/>
		<rect x="449.5" y="504.1" class="st8" width="124" height="11.2"/>
		<rect x="476.6" y="515.4" class="st6" width="124" height="6.3"/>
		<polygon class="st2" points="980.3,563.1 1056.6,563.1 1061.5,557.2 1079.8,557.2 1079.8,643.4 957.1,643.4 957.1,557.2 
			975.4,557.2 		"/>
		<rect x="543.1" y="504.1" class="st5" width="597.8" height="11.2"/>
		<rect x="600.6" y="515.4" class="st7" width="513.1" height="6.3"/>
		<rect x="620.7" y="521.7" class="st7" width="7.4" height="258.4"/>
		<path class="st7" d="M950.6,551v2.1v10c-3.1,0-7.4-2.9-7.4-8.6v-32.8h7.4V551z"/>
		<path class="st6" d="M905.2,563.1c-3.1,0-7.3-2.9-7.3-8.6v-32.8h7.3V563.1z"/>
		<path class="st5" d="M1086.3,551H950.6v97.6h135.6V551z M1079.8,642.5H957.1v-85.3h122.6V642.5z"/>
		<polygon class="st6" points="1056.6,563.1 980.3,563.1 975.4,557.2 1061.5,557.2 		"/>
		<polygon class="st6" points="1056.6,596.6 980.3,596.6 975.4,590.7 1061.5,590.7 		"/>
		<polygon class="st6" points="1056.6,622.5 980.3,622.5 975.4,616.6 1061.5,616.6 		"/>
		<polygon class="st7" points="1093.8,780.1 1086.3,780.1 1086.3,648.6 1086.3,521.7 1093.8,521.7 		"/>
		<polygon class="st9" points="654.5,494.6 694,494.6 694,504.3 626.1,504.3 		"/>
		<rect x="654.5" y="465.5" class="st9" width="10.1" height="29.8"/>
		<polygon class="st6" points="661.1,494.6 727,495.2 727,465.5 661.1,465.5 		"/>
		<rect x="658.3" y="465.5" class="st9" width="68.7" height="6.3"/>
		<path class="st8" d="M551.7,300.9H563v164.7h-11.3c-0.6,0-0.9-0.4-0.9-0.9l0,0V301.8C550.8,301.2,551.1,300.9,551.7,300.9
			C551.7,300.8,551.7,300.8,551.7,300.9z"/>
		<path class="st5" d="M830.6,465.5H557.4c-0.6,0-0.9-0.4-0.9-0.9V301.8c0-0.6,0.4-0.9,0.9-0.9h273.2c0.6,0,0.9,0.4,0.9,0.9v162.7
			C831.6,465,831.1,465.5,830.6,465.5z"/>
		<rect x="561" y="305.3" class="st6" width="266.1" height="148"/>
		<rect x="686" y="316.9" class="st8" width="128" height="44"/>
		<path class="st0" d="M689,319.7h122v38.4H689V319.7z M809.8,320.9H690.1V357h119.7L809.8,320.9L809.8,320.9z"/>
		
			<rect x="749.4" y="275.6" transform="matrix(0.295 -0.9555 0.9555 0.295 204.9653 955.5341)" class="st0" width="1.1" height="126.5"/>
		
			<rect x="686.7" y="338.3" transform="matrix(0.9554 -0.2952 0.2952 0.9554 -66.6187 236.4966)" class="st0" width="126.5" height="1.1"/>
		<rect x="639.9" y="371.3" class="st8" width="60" height="73.3"/>
		<path class="st0" d="M642.5,373.9h54.9v67.8h-54.9V373.9z M696.3,375.1h-52.6v65.5h52.6V375.1z"/>
		<polygon class="st0" points="696.4,441.5 697.3,440.8 643.5,374.2 642.6,374.8 		"/>
		<polygon class="st0" points="643.5,441.5 697.3,374.8 696.4,374.2 642.6,440.8 		"/>
		<rect x="571.9" y="371.3" class="st8" width="60" height="73.3"/>
		<path class="st0" d="M574.5,373.9h54.9v67.8h-54.9V373.9z M628.3,375.1h-52.6v65.5h52.6V375.1z"/>
		<polygon class="st0" points="628.4,441.5 629.3,440.8 575.5,374.2 574.6,374.8 		"/>
		<polygon class="st0" points="575.5,441.5 629.3,374.8 628.4,374.2 574.6,440.8 		"/>
		<rect x="629.5" y="319.7" class="st8" width="46.1" height="4.5"/>
		<rect x="629.5" y="328.5" class="st8" width="46.1" height="4.5"/>
		<rect x="629.5" y="337.3" class="st8" width="46.1" height="4.5"/>
		<rect x="629.5" y="346.1" class="st8" width="46.1" height="4.5"/>
		<rect x="629.5" y="354.8" class="st8" width="46.1" height="4.5"/>
		<rect x="711.9" y="375.5" class="st8" width="103.7" height="4.5"/>
		<rect x="711.9" y="384.4" class="st8" width="103.7" height="4.5"/>
		<rect x="711.9" y="393.1" class="st8" width="103.7" height="4.5"/>
		<rect x="711.9" y="401.8" class="st8" width="103.7" height="4.5"/>
		<rect x="711.9" y="410.7" class="st8" width="103.7" height="4.5"/>
		<rect x="711.9" y="424.8" class="st8" width="103.7" height="4.5"/>
		<rect x="711.9" y="433.5" class="st8" width="103.7" height="4.5"/>
		<rect x="571.9" y="319.7" class="st8" width="46.1" height="4.5"/>
		<rect x="571.9" y="328.5" class="st8" width="46.1" height="4.5"/>
		<rect x="571.9" y="337.3" class="st8" width="46.1" height="4.5"/>
		<rect x="571.9" y="346.1" class="st8" width="46.1" height="4.5"/>
		<rect x="571.9" y="354.8" class="st8" width="46.1" height="4.5"/>
		<path class="st6" d="M727,494.6c0,0,3.6,5.2,36.9,5.2v4.5H694v-4.5c0,0-28.9-0.6-32.9-5.2H727z"/>
		<path class="st6" d="M1343.7,529.7c0,0,44.2,14.8,38.2,65.7c-6,51,2.7,113,2.7,113h-25.2c0,0-44.9-60.5-11.8-105.8
			C1380.7,557.3,1343.7,529.7,1343.7,529.7z"/>
		<path class="st5" d="M1347.1,532.9c8.1,6.6,31.5,30.8,6.3,70.7c-29.9,47.5,18.9,104.8,18.9,104.8l12.1-0.8c0.1,0.6,0.1,1,0.1,1
			h-25.2c0,0-44.9-60.5-11.8-105.8C1374,566.4,1355.5,541.3,1347.1,532.9z"/>
		<g class="st10">
			<path class="st11" d="M1345.5,531.2c-1.1-1-1.8-1.5-1.8-1.5c3.2,1.2,6.4,2.8,9.4,4.6C1350.6,533.1,1348,532.1,1345.5,531.2z"/>
		</g>
		<path class="st7" d="M1392.1,652.2c-2.4-45.3-0.6-50.9,17-65.7c17.6-14.9,42.3-39.4,42.3-39.4c-16.9,33.4-16.6,48.6-19.7,73.1
			c-2.5,19-31.1,57.1-43.8,73.3C1390.7,686.8,1393.2,674.6,1392.1,652.2z"/>
		
			<linearGradient id="SVGID_3_" gradientUnits="userSpaceOnUse" x1="3045.0862" y1="-167.1731" x2="3042.7341" y2="-171.0934" gradientTransform="matrix(-1 0 0 1 4429.02 866)">
			<stop  offset="0" style="stop-color:#DBEBFF"/>
			<stop  offset="0.53" style="stop-color:#DDECFF"/>
			<stop  offset="0.74" style="stop-color:#E4F0FF"/>
			<stop  offset="0.89" style="stop-color:#F0F7FF"/>
			<stop  offset="1" style="stop-color:#FFFFFF"/>
		</linearGradient>
		<path class="st12" d="M1381.9,700.8c0,0,2.4-2.8,6-7.5C1385,699.9,1381.9,700.8,1381.9,700.8z"/>
		<path class="st6" d="M1400.6,631.1c8.7,37.5-9.9,62.8-9.9,62.8h-18.4c0-12.9-0.9-25.3-6.9-37.9c-0.3-0.7-0.7-1.2-1.1-1.9
			c2.6-1.2,5.5-2.5,8.7-3.7C1406.8,637.5,1391.8,593.6,1400.6,631.1z"/>
		<path class="st7" d="M1352.9,640.6c18.7,9.4,13.2,50,13.2,50l-17.6,6.4c0,0,3.1-18.5-8.7-32.8s-19.8-8.8-19.8-8.8
			S1334.3,631.1,1352.9,640.6z"/>
		<path class="st7" d="M1442.3,621.5c31.4,0,48.8,18.9,48.8,18.9s-12.2-6.2-34.1-5.4c-21.8,0.8-20.3,19.4-37.7,36.6
			c-17.5,17.2-32.1,19.8-32.1,19.8s23.3-33.6,40.2-56.5C1430.6,631,1427.7,621.5,1442.3,621.5z"/>
		<path class="st13" d="M1497.3,646.8c0.1,0.1,0.1,0.3,0.1,0.6C1497.6,647.4,1497.5,647.1,1497.3,646.8z"/>
		<path class="st5" d="M1417,641.8c5.8-7.8-0.2-27.2,37.1-22.7c34.1,4.1,42.1,24.3,43.2,27.8c-0.9-2.2-6.3-11.4-39.2-18.8
			c-37.7-8.5-17.8,11-34.8,23.4c-17,12.4-31,35.5-31,35.5s-9.6,16.2-7.4,2.7C1387.1,676,1411.1,649.6,1417,641.8z"/>
		<path class="st5" d="M1301.1,658.6c17.1-34.8,37.7-32.6,51.5-25c19.5,10.9,16.4,56,16.4,56l-2.8,0.9c0,0-0.4-8.7-1.9-23.9
			c-1.5-15.1-8.8-36.4-32.7-6.7c-23.9,29.7-57.6,35.1-57.6,35.1S1284.1,693.5,1301.1,658.6z"/>
		<path class="st5" d="M1346.4,615.2c5.4-3.9,10.9-3.2,15-1.5c5.4,2.1,11.3,1.6,16.2-1.5c17.9-10.9,19.4,4,19.4,4l-0.4,4v0.1
			c-1.3,7.5-5.5,23.1-23.5,30c-3.2,1.2-31.5,13.4-31.5,13.4C1345.2,648.5,1335.4,623.3,1346.4,615.2z"/>
		<path class="st8" d="M1393.6,780.1h-30c-11,0-19.9-9-19.9-19.9v-73.4h70v73.4C1413.6,771.1,1404.7,780.1,1393.6,780.1z"/>
		
			<linearGradient id="SVGID_4_" gradientUnits="userSpaceOnUse" x1="3082.7981" y1="-174.2916" x2="3023.042" y2="-174.2916" gradientTransform="matrix(-1 0 0 1 4429.02 866)">
			<stop  offset="0" style="stop-color:#FFD000"/>
			<stop  offset="1" style="stop-color:#FF7300"/>
		</linearGradient>
		<rect x="1336.8" y="686.7" class="st14" width="83.6" height="10.1"/>
		<rect x="88.6" y="261.7" class="st3" width="3.5" height="69.8"/>
		<rect x="121.3" y="251.5" class="st3" width="5.5" height="528.6"/>
		<polygon class="st3" points="150.2,182.2 194.6,266 53.6,266 98,182.2 		"/>
		<path class="st3" d="M90.3,325.1c3.5,0,6.3,2.8,6.3,6.3c0,3.5-2.8,6.3-6.3,6.3c-3.5,0-6.3-2.8-6.3-6.3l0,0
			C84,328,86.9,325.2,90.3,325.1z"/>
		<path class="st7" d="M679.2,504.1c3.1-12.5,15.8-20.2,28.2-17c8.4,2.1,15,8.6,17,17H679.2z"/>
		<path class="st15" d="M690.7,491c12.3,0,17.6,11.4,27.9,6.8c10.3-4.6,15.1-4.3,14.6-12.9s-7.4-7.8-21.4-7.8
			C698.1,477.2,672.3,491,690.7,491z"/>
		<path class="st15" d="M823.1,761.4c25.2,0,8.2-30.5,2.6-46.5l24-5.6c6.5,16,1.3,32,14.3,53.2c9.2,15.1-1.6,17.5-1.6,17.5h-60.5
			C801.9,780.1,801.9,761.4,823.1,761.4z"/>
		<path class="st16" d="M823.1,761.4c7.2,0,11-2.5,12.5-6.4c4.7-0.9,4.5,1.9,7.7,4.3c9.5,7.1,19.3,0.9,20.7,3.2
			c9.2,15.1-1.6,17.5-1.6,17.5H802C801.9,780,801.9,761.4,823.1,761.4z"/>
		<path class="st15" d="M704.1,759.1c20.3-6.4,34.5-37.3,41.6-53.9l23.7,9.6c-5.4,7.8-18.7,20.5-21.4,47.7
			c-1.9,19.3-7.1,17.5-7.1,17.5h-65.6C675.3,780,683.8,765.4,704.1,759.1z"/>
		<path class="st16" d="M704.1,759.1c6.2-1.9,11.6-6,16.7-11.4c1.5-1.7,3.1,5.4,4.8,7.7c3.5,4.6,18.3,6.6,22.7,3.4
			c-0.2,1.3-0.3,2.5-0.4,3.7c-1.9,19.3-7.1,17.5-7.1,17.5h-65.6C675.3,780,683.8,765.4,704.1,759.1z"/>
		<polygon class="st4" points="906.9,594.3 915.4,594.3 887,780.1 878.6,780.1 		"/>
		<polygon class="st4" points="807.9,594.3 816.3,594.3 788,780.1 779.6,780.1 		"/>
		
			<linearGradient id="SVGID_5_" gradientUnits="userSpaceOnUse" x1="3677.7781" y1="-147.4241" x2="3631.855" y2="-236.2463" gradientTransform="matrix(-1 0 0 1 4429.02 866)">
			<stop  offset="0" style="stop-color:#FFD000"/>
			<stop  offset="1" style="stop-color:#FF7300"/>
		</linearGradient>
		<path class="st17" d="M800.2,563.1c0,0-53.8,138.4-61,153.5c0,0,10.4,11.9,24.6,12.2c0,0,79-126.3,86.2-140.6
			S800.2,563.1,800.2,563.1z"/>
		
			<linearGradient id="SVGID_6_" gradientUnits="userSpaceOnUse" x1="3573.6943" y1="-210.8251" x2="3649.5237" y2="-210.8251" gradientTransform="matrix(-1 0 0 1 4429.02 866)">
			<stop  offset="0" style="stop-color:#FFD000"/>
			<stop  offset="1" style="stop-color:#FF7300"/>
		</linearGradient>
		<path class="st18" d="M779.6,583.3c0,0,44.5,129.5,49.5,145.4c0,0,15.7,1.3,26.3-8.1c0,0-16.1-113.8-20.6-129.1
			C830.3,576.1,779.6,583.3,779.6,583.3z"/>
		<path class="st15" d="M880.6,349.2c0,0,8.5,1.1,9.5,7.3c1,6.2-2.6,12.1-2.6,12.1s18,4.8,34.2-1.5c0,0-8.2-16.1-8.3-33.2
			C913.3,316.9,880.6,349.2,880.6,349.2z"/>
		<path class="st19" d="M898.7,360.5c-0.1-8.1-6.6-14-14.1-15.1c8.7-8,28.8-24.9,28.9-11.4c0.1,17.1,8.3,33.2,8.3,33.2
			c-7.3,2.6-15.1,3.7-22.7,3C898.9,367,898.7,363.7,898.7,360.5z"/>
		<path class="st15" d="M860.6,298.1c0,0-1.8,11.3-0.9,20.7c0.9,9.4-2.6,21.6,6.4,32.1c9,10.5,29.5-1.2,34.2-13.9s0.6-22.7-6-28.6
			C887.6,302.7,860.6,298.1,860.6,298.1z"/>
		<path class="st19" d="M875.3,338.3c-0.2-4.6-5.5-38.4-5.5-38.4c8.5,1.8,20.4,4.9,24.4,8.5c6.6,5.8,10.8,15.8,6,28.6
			c-4.5,12.1-23.1,23.2-32.7,15.5C872.5,349.4,875.4,344,875.3,338.3z"/>
		<path class="st6" d="M870.5,305.8c0,0,3.6,3.5,5.2,11.5c1.6,8.1,3,12.5,5.8,7.2c2.8-5.4,3.5-14,10.5-8.8
			c4.6,3.4,4.6,10.2,3.1,13.8s3.2,11.8,12.9,8.7c9.6-3,16-29,16-29S880.1,295.5,870.5,305.8z"/>
		<path class="st9" d="M866.2,273.2c0,0-12.9,3.2-14.1,14.1c-1.1,9.7,4.1,19.2,21.4,18.5c17.2-0.7,18.4,10,27.6,12.9
			s18.3,0.2,22.6-8.8c4.6-9.3,3.1-20.7-8.1-29.9C904.4,270.8,867.4,257.6,866.2,273.2z"/>
		
			<linearGradient id="SVGID_7_" gradientUnits="userSpaceOnUse" x1="3436.1025" y1="-317.8615" x2="3651.418" y2="-317.8615" gradientTransform="matrix(-1 0 0 1 4429.02 866)">
			<stop  offset="0" style="stop-color:#FFD000"/>
			<stop  offset="1" style="stop-color:#FF7300"/>
		</linearGradient>
		<path class="st20" d="M987,512.9c0,21.6,23.1,74.1-22.2,73.7s-183.9,0-183.9,0s-9.4-18.6,3.4-30.2c12.8-11.6,90.6-28.8,100.1-40.7
			C894,503.9,987,512.9,987,512.9z"/>
		
			<linearGradient id="SVGID_8_" gradientUnits="userSpaceOnUse" x1="3453.271" y1="-319.0122" x2="3545.2405" y2="-291.7159" gradientTransform="matrix(-1 0 0 1 4429.02 866)">
			<stop  offset="2.024560e-07" style="stop-color:#FFC200"/>
			<stop  offset="1" style="stop-color:#C96019"/>
		</linearGradient>
		<path class="st21" d="M908.1,577.6c81,0,58-63.4,58.8-66.3c11.8,0.8,20,1.6,20,1.6c0,21.6,23.1,74.1-22.2,73.7
			c-32.4-0.3-112.7-0.2-155.7-0.1C814,585.4,897.1,577.6,908.1,577.6z"/>
		<path class="st8" d="M883.3,367.6c-9,0.4-23.9,12.4-23.9,30.8c0,24.2,4.5,58,15.3,75.2c10.9,17.1-9.9,37.6,8.5,45
			c18.4,7.4,103.2,8.4,106.4-4c3.2-12.4-14.6-96.8-19.6-113.5c-5-16.7-14-28.7-20.8-31.6S899.8,366.7,883.3,367.6z"/>
		<path class="st7" d="M977.4,493c0.4-10.4,1.5-21.7-0.9-31.9c-16.1-70.9-33.9-78.4-41.1-84.6c-8.4-7.3-18.6-2.5-29.9-2.9
			c-15.2-0.6-20.8-6.2-21.1-6.2c17.2-0.8,58.1-0.8,64.7,2c6.8,2.9,15.8,15.1,20.8,31.6s22.8,101,19.6,113.5
			c-1.5,5.4-18.6,8.3-38.9,9.2C965.2,520.2,976.6,510.4,977.4,493z"/>
		<path class="st2" d="M883.3,367.6c5.5-2.8,10.3-0.8,15.3-5.6c9.1-8.7,23.2-6.8,23.2-6.8l7.1,12
			C928.8,367.1,902.4,380.4,883.3,367.6z"/>
		<path class="st8" d="M886.8,371c-7.3-6.6-26.8,1.7-39.4,18c-12.7,16.4-39.2,77.7-45.8,91.7c-6.2,13,12.7,35.7,33.4,14.8
			s36.3-53.3,43.7-76.4C886,396.1,894.6,378.1,886.8,371z"/>
		<path class="st5" d="M896.8,501.2h127c3-0.1,5.6-2.1,6.3-5l9-36c1-3.5-1-7.1-4.5-8c-0.6-0.1-1-0.2-1.6-0.2h-127
			c-3,0.1-5.6,2.1-6.3,5l-9,36c-1,3.5,1,6.9,4.4,8C895.6,501.2,896.2,501.2,896.8,501.2z"/>
		<path class="st3" d="M900.3,501.2h123.5c2.8,0,5.3-1.9,5.9-4.7l8.1-33.2c0.8-3.2-1.2-6.6-4.5-7.4c-0.4-0.1-1-0.2-1.5-0.2H908.5
			c-2.8,0-5.3,1.9-5.9,4.7l-8.1,33.2c-0.8,3.2,1.2,6.6,4.5,7.4C899.3,501.2,899.9,501.2,900.3,501.2z"/>
		<rect x="774.7" y="586.6" class="st8" width="96.9" height="10"/>
		<polygon class="st2" points="891.3,594.3 882.9,594.3 911.2,780.1 919.6,780.1 		"/>
		<polygon class="st2" points="990.3,594.3 981.9,594.3 1010.2,780.1 1018.6,780.1 		"/>
		<rect x="871.6" y="586.6" class="st5" width="128.7" height="10"/>
		<path class="st4" d="M885.2,593.4c1.6,0,2.9-1.1,3.4-2.6l30.1-117.5c0.4-1.9-0.8-3.7-2.7-4.1c-1.8-0.3-3.5,0.7-4,2.4L881.9,589
			c-0.4,1.9,0.7,3.7,2.5,4.3l0,0C884.7,593.3,884.9,593.4,885.2,593.4z"/>
		<path class="st2" d="M888.7,593.4c1.6,0,2.9-1.1,3.4-2.6l30.1-117.5c0.4-1.9-0.8-3.7-2.7-4.1c-1.8-0.3-3.5,0.7-4,2.4L885.3,589
			c-0.4,1.9,0.7,3.7,2.5,4.3C888.1,593.3,888.4,593.4,888.7,593.4z"/>
		<path class="st4" d="M983.5,593.4c1.6,0,2.9-1.1,3.4-2.6l30.1-117.5c0.4-1.9-0.8-3.7-2.7-4.1c-1.8-0.3-3.5,0.7-4,2.4L980.1,589
			c-0.4,1.9,0.7,3.7,2.5,4.3l0,0C982.9,593.3,983.2,593.4,983.5,593.4z"/>
		<path class="st2" d="M986.9,593.4c1.6,0,2.9-1.1,3.4-2.6l30.1-117.5c0.4-1.9-0.8-3.7-2.7-4.1c-1.8-0.3-3.5,0.7-4,2.4L983.6,589
			c-0.4,1.9,0.7,3.7,2.5,4.3C986.4,593.3,986.7,593.4,986.9,593.4z"/>
		<path class="st8" d="M819,504c-21.1,2.6-55,0-97.4-1.3c0,0-5-16.4,1.6-27.4c0,0,81-4.5,89.7-4.3S841,501.2,819,504z"/>
	</g>
</g>
</svg>
